<?xml version="1.0" encoding="UTF-8" standalone="no"?>
<!DOCTYPE svg PUBLIC "-//W3C//DTD SVG 1.1//EN"
 "http://www.w3.org/Graphics/SVG/1.1/DTD/svg11.dtd">
<!-- Generated by graphviz version 2.38.0 (20140413.2041)
 -->
<!-- Pages: 1 -->
<svg width="1471pt" height="1052pt"
 viewBox="0.00 0.00 1471.00 1052.00" xmlns="http://www.w3.org/2000/svg" xmlns:xlink="http://www.w3.org/1999/xlink">
<g id="graph0" class="graph" transform="scale(1 1) rotate(0) translate(4 1048)">
<polygon fill="white" stroke="none" points="-4,4 -4,-1048 1467,-1048 1467,4 -4,4"/>
<!-- n002 -->
<g id="node1" class="node"><title>n002</title>
<polygon fill="none" stroke="black" points="74,-36 20,-36 20,-0 74,-0 74,-36"/>
<text text-anchor="middle" x="47" y="-14.3" font-family="Times New Roman,serif" font-size="14.00">array</text>
</g>
<!-- n003 -->
<g id="node2" class="node"><title>n003</title>
<polygon fill="none" stroke="black" points="146,-36 92,-36 92,-0 146,-0 146,-36"/>
<text text-anchor="middle" x="119" y="-14.3" font-family="Times New Roman,serif" font-size="14.00">(</text>
</g>
<!-- n004 -->
<g id="node3" class="node"><title>n004</title>
<polygon fill="none" stroke="black" points="218,-36 164,-36 164,-0 218,-0 218,-36"/>
<text text-anchor="middle" x="191" y="-14.3" font-family="Times New Roman,serif" font-size="14.00">)</text>
</g>
<!-- n005 -->
<g id="node4" class="node"><title>n005</title>
<polygon fill="none" stroke="black" points="158.5,-108 79.5,-108 79.5,-72 158.5,-72 158.5,-108"/>
<text text-anchor="middle" x="119" y="-86.3" font-family="Times New Roman,serif" font-size="14.00">FUNCION</text>
</g>
<!-- n005&#45;&#45;n002 -->
<g id="edge1" class="edge"><title>n005&#45;&#45;n002</title>
<path fill="none" stroke="black" d="M101.202,-71.6966C90.0419,-60.8463 75.7143,-46.9167 64.593,-36.1043"/>
</g>
<!-- n005&#45;&#45;n003 -->
<g id="edge2" class="edge"><title>n005&#45;&#45;n003</title>
<path fill="none" stroke="black" d="M119,-71.6966C119,-60.8463 119,-46.9167 119,-36.1043"/>
</g>
<!-- n005&#45;&#45;n004 -->
<g id="edge3" class="edge"><title>n005&#45;&#45;n004</title>
<path fill="none" stroke="black" d="M136.798,-71.6966C147.958,-60.8463 162.286,-46.9167 173.407,-36.1043"/>
</g>
<!-- n006 -->
<g id="node5" class="node"><title>n006</title>
<polygon fill="none" stroke="black" points="54,-180 0,-180 0,-144 54,-144 54,-180"/>
<text text-anchor="middle" x="27" y="-158.3" font-family="Times New Roman,serif" font-size="14.00">=</text>
</g>
<!-- n007 -->
<g id="node6" class="node"><title>n007</title>
<polygon fill="none" stroke="black" points="166,-180 72,-180 72,-144 166,-144 166,-180"/>
<text text-anchor="middle" x="119" y="-158.3" font-family="Times New Roman,serif" font-size="14.00">EXPRESION</text>
</g>
<!-- n007&#45;&#45;n005 -->
<g id="edge4" class="edge"><title>n007&#45;&#45;n005</title>
<path fill="none" stroke="black" d="M119,-143.697C119,-132.846 119,-118.917 119,-108.104"/>
</g>
<!-- n008 -->
<g id="node7" class="node"><title>n008</title>
<polygon fill="none" stroke="black" points="238,-180 184,-180 184,-144 238,-144 238,-180"/>
<text text-anchor="middle" x="211" y="-158.3" font-family="Times New Roman,serif" font-size="14.00">;</text>
</g>
<!-- n0010 -->
<g id="node8" class="node"><title>n0010</title>
<polygon fill="none" stroke="black" points="64,-252 10,-252 10,-216 64,-216 64,-252"/>
<text text-anchor="middle" x="37" y="-230.3" font-family="Times New Roman,serif" font-size="14.00">$s0</text>
</g>
<!-- n0011 -->
<g id="node9" class="node"><title>n0011</title>
<polygon fill="none" stroke="black" points="155.5,-252 82.5,-252 82.5,-216 155.5,-216 155.5,-252"/>
<text text-anchor="middle" x="119" y="-230.3" font-family="Times New Roman,serif" font-size="14.00">ARRAY_</text>
</g>
<!-- n0011&#45;&#45;n006 -->
<g id="edge5" class="edge"><title>n0011&#45;&#45;n006</title>
<path fill="none" stroke="black" d="M96.2584,-215.697C81.998,-204.846 63.6905,-190.917 49.48,-180.104"/>
</g>
<!-- n0011&#45;&#45;n007 -->
<g id="edge6" class="edge"><title>n0011&#45;&#45;n007</title>
<path fill="none" stroke="black" d="M119,-215.697C119,-204.846 119,-190.917 119,-180.104"/>
</g>
<!-- n0011&#45;&#45;n008 -->
<g id="edge7" class="edge"><title>n0011&#45;&#45;n008</title>
<path fill="none" stroke="black" d="M141.742,-215.697C156.002,-204.846 174.309,-190.917 188.52,-180.104"/>
</g>
<!-- n0013 -->
<g id="node10" class="node"><title>n0013</title>
<polygon fill="none" stroke="black" points="179.5,-324 46.5,-324 46.5,-288 179.5,-288 179.5,-324"/>
<text text-anchor="middle" x="113" y="-302.3" font-family="Times New Roman,serif" font-size="14.00">DECLARACIONES</text>
</g>
<!-- n0013&#45;&#45;n0010 -->
<g id="edge8" class="edge"><title>n0013&#45;&#45;n0010</title>
<path fill="none" stroke="black" d="M94.2135,-287.697C82.4331,-276.846 67.3096,-262.917 55.5704,-252.104"/>
</g>
<!-- n0013&#45;&#45;n0011 -->
<g id="edge9" class="edge"><title>n0013&#45;&#45;n0011</title>
<path fill="none" stroke="black" d="M114.483,-287.697C115.413,-276.846 116.607,-262.917 117.534,-252.104"/>
</g>
<!-- n0015 -->
<g id="node11" class="node"><title>n0015</title>
<polygon fill="none" stroke="black" points="167,-396 73,-396 73,-360 167,-360 167,-396"/>
<text text-anchor="middle" x="120" y="-374.3" font-family="Times New Roman,serif" font-size="14.00">SENTENCIA</text>
</g>
<!-- n0015&#45;&#45;n0013 -->
<g id="edge10" class="edge"><title>n0015&#45;&#45;n0013</title>
<path fill="none" stroke="black" d="M118.27,-359.697C117.185,-348.846 115.792,-334.917 114.71,-324.104"/>
</g>
<!-- n0016 -->
<g id="node12" class="node"><title>n0016</title>
<polygon fill="none" stroke="black" points="331,-36 277,-36 277,-0 331,-0 331,-36"/>
<text text-anchor="middle" x="304" y="-14.3" font-family="Times New Roman,serif" font-size="14.00">23</text>
</g>
<!-- n0017 -->
<g id="node13" class="node"><title>n0017</title>
<polygon fill="none" stroke="black" points="331,-108 277,-108 277,-72 331,-72 331,-108"/>
<text text-anchor="middle" x="304" y="-86.3" font-family="Times New Roman,serif" font-size="14.00">F</text>
</g>
<!-- n0017&#45;&#45;n0016 -->
<g id="edge11" class="edge"><title>n0017&#45;&#45;n0016</title>
<path fill="none" stroke="black" d="M304,-71.6966C304,-60.8463 304,-46.9167 304,-36.1043"/>
</g>
<!-- n0018 -->
<g id="node14" class="node"><title>n0018</title>
<polygon fill="none" stroke="black" points="345.5,-180 262.5,-180 262.5,-144 345.5,-144 345.5,-180"/>
<text text-anchor="middle" x="304" y="-158.3" font-family="Times New Roman,serif" font-size="14.00">ATOMICO</text>
</g>
<!-- n0018&#45;&#45;n0017 -->
<g id="edge12" class="edge"><title>n0018&#45;&#45;n0017</title>
<path fill="none" stroke="black" d="M304,-143.697C304,-132.846 304,-118.917 304,-108.104"/>
</g>
<!-- n0019 -->
<g id="node15" class="node"><title>n0019</title>
<polygon fill="none" stroke="black" points="239,-252 185,-252 185,-216 239,-216 239,-252"/>
<text text-anchor="middle" x="212" y="-230.3" font-family="Times New Roman,serif" font-size="14.00">=</text>
</g>
<!-- n0020 -->
<g id="node16" class="node"><title>n0020</title>
<polygon fill="none" stroke="black" points="351,-252 257,-252 257,-216 351,-216 351,-252"/>
<text text-anchor="middle" x="304" y="-230.3" font-family="Times New Roman,serif" font-size="14.00">EXPRESION</text>
</g>
<!-- n0020&#45;&#45;n0018 -->
<g id="edge13" class="edge"><title>n0020&#45;&#45;n0018</title>
<path fill="none" stroke="black" d="M304,-215.697C304,-204.846 304,-190.917 304,-180.104"/>
</g>
<!-- n0021 -->
<g id="node17" class="node"><title>n0021</title>
<polygon fill="none" stroke="black" points="423,-252 369,-252 369,-216 423,-216 423,-252"/>
<text text-anchor="middle" x="396" y="-230.3" font-family="Times New Roman,serif" font-size="14.00">;</text>
</g>
<!-- n0023 -->
<g id="node18" class="node"><title>n0023</title>
<polygon fill="none" stroke="black" points="252,-324 198,-324 198,-288 252,-288 252,-324"/>
<text text-anchor="middle" x="225" y="-302.3" font-family="Times New Roman,serif" font-size="14.00">$t0</text>
</g>
<!-- n0024 -->
<g id="node19" class="node"><title>n0024</title>
<polygon fill="none" stroke="black" points="343.5,-324 270.5,-324 270.5,-288 343.5,-288 343.5,-324"/>
<text text-anchor="middle" x="307" y="-302.3" font-family="Times New Roman,serif" font-size="14.00">ARRAY_</text>
</g>
<!-- n0024&#45;&#45;n0019 -->
<g id="edge14" class="edge"><title>n0024&#45;&#45;n0019</title>
<path fill="none" stroke="black" d="M283.517,-287.697C268.791,-276.846 249.887,-262.917 235.213,-252.104"/>
</g>
<!-- n0024&#45;&#45;n0020 -->
<g id="edge15" class="edge"><title>n0024&#45;&#45;n0020</title>
<path fill="none" stroke="black" d="M306.258,-287.697C305.793,-276.846 305.196,-262.917 304.733,-252.104"/>
</g>
<!-- n0024&#45;&#45;n0021 -->
<g id="edge16" class="edge"><title>n0024&#45;&#45;n0021</title>
<path fill="none" stroke="black" d="M329,-287.697C342.795,-276.846 360.506,-262.917 374.253,-252.104"/>
</g>
<!-- n0026 -->
<g id="node20" class="node"><title>n0026</title>
<polygon fill="none" stroke="black" points="345.5,-396 212.5,-396 212.5,-360 345.5,-360 345.5,-396"/>
<text text-anchor="middle" x="279" y="-374.3" font-family="Times New Roman,serif" font-size="14.00">DECLARACIONES</text>
</g>
<!-- n0026&#45;&#45;n0023 -->
<g id="edge17" class="edge"><title>n0026&#45;&#45;n0023</title>
<path fill="none" stroke="black" d="M265.652,-359.697C257.281,-348.846 246.536,-334.917 238.195,-324.104"/>
</g>
<!-- n0026&#45;&#45;n0024 -->
<g id="edge18" class="edge"><title>n0026&#45;&#45;n0024</title>
<path fill="none" stroke="black" d="M285.921,-359.697C290.261,-348.846 295.833,-334.917 300.158,-324.104"/>
</g>
<!-- n0028 -->
<g id="node21" class="node"><title>n0028</title>
<polygon fill="none" stroke="black" points="200,-468 98,-468 98,-432 200,-432 200,-468"/>
<text text-anchor="middle" x="149" y="-446.3" font-family="Times New Roman,serif" font-size="14.00">SENTENCIAS</text>
</g>
<!-- n0028&#45;&#45;n0015 -->
<g id="edge19" class="edge"><title>n0028&#45;&#45;n0015</title>
<path fill="none" stroke="black" d="M141.831,-431.697C137.336,-420.846 131.565,-406.917 127.086,-396.104"/>
</g>
<!-- n0029 -->
<g id="node22" class="node"><title>n0029</title>
<polygon fill="none" stroke="black" points="326,-468 232,-468 232,-432 326,-432 326,-468"/>
<text text-anchor="middle" x="279" y="-446.3" font-family="Times New Roman,serif" font-size="14.00">SENTENCIA</text>
</g>
<!-- n0029&#45;&#45;n0026 -->
<g id="edge20" class="edge"><title>n0029&#45;&#45;n0026</title>
<path fill="none" stroke="black" d="M279,-431.697C279,-420.846 279,-406.917 279,-396.104"/>
</g>
<!-- n0030 -->
<g id="node23" class="node"><title>n0030</title>
<polygon fill="none" stroke="black" points="613,-108 559,-108 559,-72 613,-72 613,-108"/>
<text text-anchor="middle" x="586" y="-86.3" font-family="Times New Roman,serif" font-size="14.00">$t0</text>
</g>
<!-- n0031 -->
<g id="node24" class="node"><title>n0031</title>
<polygon fill="none" stroke="black" points="514,-180 460,-180 460,-144 514,-144 514,-180"/>
<text text-anchor="middle" x="487" y="-158.3" font-family="Times New Roman,serif" font-size="14.00">&amp;</text>
</g>
<!-- n0032 -->
<g id="node25" class="node"><title>n0032</title>
<polygon fill="none" stroke="black" points="586,-180 532,-180 532,-144 586,-144 586,-180"/>
<text text-anchor="middle" x="559" y="-158.3" font-family="Times New Roman,serif" font-size="14.00">F</text>
</g>
<!-- n0032&#45;&#45;n0030 -->
<g id="edge21" class="edge"><title>n0032&#45;&#45;n0030</title>
<path fill="none" stroke="black" d="M565.674,-143.697C569.859,-132.846 575.232,-118.917 579.403,-108.104"/>
</g>
<!-- n0033 -->
<g id="node26" class="node"><title>n0033</title>
<polygon fill="none" stroke="black" points="539,-252 441,-252 441,-216 539,-216 539,-252"/>
<text text-anchor="middle" x="490" y="-230.3" font-family="Times New Roman,serif" font-size="14.00">OPERACION</text>
</g>
<!-- n0033&#45;&#45;n0031 -->
<g id="edge22" class="edge"><title>n0033&#45;&#45;n0031</title>
<path fill="none" stroke="black" d="M489.258,-215.697C488.793,-204.846 488.196,-190.917 487.733,-180.104"/>
</g>
<!-- n0033&#45;&#45;n0032 -->
<g id="edge23" class="edge"><title>n0033&#45;&#45;n0032</title>
<path fill="none" stroke="black" d="M507.056,-215.697C517.752,-204.846 531.482,-190.917 542.14,-180.104"/>
</g>
<!-- n0034 -->
<g id="node27" class="node"><title>n0034</title>
<polygon fill="none" stroke="black" points="422,-324 368,-324 368,-288 422,-288 422,-324"/>
<text text-anchor="middle" x="395" y="-302.3" font-family="Times New Roman,serif" font-size="14.00">=</text>
</g>
<!-- n0035 -->
<g id="node28" class="node"><title>n0035</title>
<polygon fill="none" stroke="black" points="534,-324 440,-324 440,-288 534,-288 534,-324"/>
<text text-anchor="middle" x="487" y="-302.3" font-family="Times New Roman,serif" font-size="14.00">EXPRESION</text>
</g>
<!-- n0035&#45;&#45;n0033 -->
<g id="edge24" class="edge"><title>n0035&#45;&#45;n0033</title>
<path fill="none" stroke="black" d="M487.742,-287.697C488.207,-276.846 488.804,-262.917 489.267,-252.104"/>
</g>
<!-- n0036 -->
<g id="node29" class="node"><title>n0036</title>
<polygon fill="none" stroke="black" points="606,-324 552,-324 552,-288 606,-288 606,-324"/>
<text text-anchor="middle" x="579" y="-302.3" font-family="Times New Roman,serif" font-size="14.00">;</text>
</g>
<!-- n0038 -->
<g id="node30" class="node"><title>n0038</title>
<polygon fill="none" stroke="black" points="432,-396 378,-396 378,-360 432,-360 432,-396"/>
<text text-anchor="middle" x="405" y="-374.3" font-family="Times New Roman,serif" font-size="14.00">$t2</text>
</g>
<!-- n0039 -->
<g id="node31" class="node"><title>n0039</title>
<polygon fill="none" stroke="black" points="523.5,-396 450.5,-396 450.5,-360 523.5,-360 523.5,-396"/>
<text text-anchor="middle" x="487" y="-374.3" font-family="Times New Roman,serif" font-size="14.00">ARRAY_</text>
</g>
<!-- n0039&#45;&#45;n0034 -->
<g id="edge25" class="edge"><title>n0039&#45;&#45;n0034</title>
<path fill="none" stroke="black" d="M464.258,-359.697C449.998,-348.846 431.691,-334.917 417.48,-324.104"/>
</g>
<!-- n0039&#45;&#45;n0035 -->
<g id="edge26" class="edge"><title>n0039&#45;&#45;n0035</title>
<path fill="none" stroke="black" d="M487,-359.697C487,-348.846 487,-334.917 487,-324.104"/>
</g>
<!-- n0039&#45;&#45;n0036 -->
<g id="edge27" class="edge"><title>n0039&#45;&#45;n0036</title>
<path fill="none" stroke="black" d="M509.742,-359.697C524.002,-348.846 542.309,-334.917 556.52,-324.104"/>
</g>
<!-- n0041 -->
<g id="node32" class="node"><title>n0041</title>
<polygon fill="none" stroke="black" points="491.5,-468 358.5,-468 358.5,-432 491.5,-432 491.5,-468"/>
<text text-anchor="middle" x="425" y="-446.3" font-family="Times New Roman,serif" font-size="14.00">DECLARACIONES</text>
</g>
<!-- n0041&#45;&#45;n0038 -->
<g id="edge28" class="edge"><title>n0041&#45;&#45;n0038</title>
<path fill="none" stroke="black" d="M420.056,-431.697C416.956,-420.846 412.976,-406.917 409.887,-396.104"/>
</g>
<!-- n0041&#45;&#45;n0039 -->
<g id="edge29" class="edge"><title>n0041&#45;&#45;n0039</title>
<path fill="none" stroke="black" d="M440.326,-431.697C449.936,-420.846 462.274,-406.917 471.85,-396.104"/>
</g>
<!-- n0043 -->
<g id="node33" class="node"><title>n0043</title>
<polygon fill="none" stroke="black" points="330,-540 228,-540 228,-504 330,-504 330,-540"/>
<text text-anchor="middle" x="279" y="-518.3" font-family="Times New Roman,serif" font-size="14.00">SENTENCIAS</text>
</g>
<!-- n0043&#45;&#45;n0028 -->
<g id="edge30" class="edge"><title>n0043&#45;&#45;n0028</title>
<path fill="none" stroke="black" d="M247.198,-503.876C227.053,-493.029 201.092,-479.05 180.924,-468.19"/>
</g>
<!-- n0043&#45;&#45;n0029 -->
<g id="edge31" class="edge"><title>n0043&#45;&#45;n0029</title>
<path fill="none" stroke="black" d="M279,-503.697C279,-492.846 279,-478.917 279,-468.104"/>
</g>
<!-- n0044 -->
<g id="node34" class="node"><title>n0044</title>
<polygon fill="none" stroke="black" points="472,-540 378,-540 378,-504 472,-504 472,-540"/>
<text text-anchor="middle" x="425" y="-518.3" font-family="Times New Roman,serif" font-size="14.00">SENTENCIA</text>
</g>
<!-- n0044&#45;&#45;n0041 -->
<g id="edge32" class="edge"><title>n0044&#45;&#45;n0041</title>
<path fill="none" stroke="black" d="M425,-503.697C425,-492.846 425,-478.917 425,-468.104"/>
</g>
<!-- n0045 -->
<g id="node35" class="node"><title>n0045</title>
<polygon fill="none" stroke="black" points="696,-180 642,-180 642,-144 696,-144 696,-180"/>
<text text-anchor="middle" x="669" y="-158.3" font-family="Times New Roman,serif" font-size="14.00">101</text>
</g>
<!-- n0046 -->
<g id="node36" class="node"><title>n0046</title>
<polygon fill="none" stroke="black" points="693,-252 639,-252 639,-216 693,-216 693,-252"/>
<text text-anchor="middle" x="666" y="-230.3" font-family="Times New Roman,serif" font-size="14.00">F</text>
</g>
<!-- n0046&#45;&#45;n0030 -->
<g id="edge33" class="edge"><title>n0046&#45;&#45;n0030</title>
<path fill="none" stroke="black" d="M654.683,-215.523C648.16,-205.281 639.91,-192.031 633,-180 618.901,-155.454 603.825,-126.334 594.654,-108.258"/>
</g>
<!-- n0046&#45;&#45;n0045 -->
<g id="edge34" class="edge"><title>n0046&#45;&#45;n0045</title>
<path fill="none" stroke="black" d="M666.742,-215.697C667.207,-204.846 667.804,-190.917 668.267,-180.104"/>
</g>
<!-- n0047 -->
<g id="node37" class="node"><title>n0047</title>
<polygon fill="none" stroke="black" points="707.5,-324 624.5,-324 624.5,-288 707.5,-288 707.5,-324"/>
<text text-anchor="middle" x="666" y="-302.3" font-family="Times New Roman,serif" font-size="14.00">ATOMICO</text>
</g>
<!-- n0047&#45;&#45;n0046 -->
<g id="edge35" class="edge"><title>n0047&#45;&#45;n0046</title>
<path fill="none" stroke="black" d="M666,-287.697C666,-276.846 666,-262.917 666,-252.104"/>
</g>
<!-- n0048 -->
<g id="node38" class="node"><title>n0048</title>
<polygon fill="none" stroke="black" points="598,-396 544,-396 544,-360 598,-360 598,-396"/>
<text text-anchor="middle" x="571" y="-374.3" font-family="Times New Roman,serif" font-size="14.00">=</text>
</g>
<!-- n0049 -->
<g id="node39" class="node"><title>n0049</title>
<polygon fill="none" stroke="black" points="710,-396 616,-396 616,-360 710,-360 710,-396"/>
<text text-anchor="middle" x="663" y="-374.3" font-family="Times New Roman,serif" font-size="14.00">EXPRESION</text>
</g>
<!-- n0049&#45;&#45;n0047 -->
<g id="edge36" class="edge"><title>n0049&#45;&#45;n0047</title>
<path fill="none" stroke="black" d="M663.742,-359.697C664.207,-348.846 664.804,-334.917 665.267,-324.104"/>
</g>
<!-- n0050 -->
<g id="node40" class="node"><title>n0050</title>
<polygon fill="none" stroke="black" points="782,-396 728,-396 728,-360 782,-360 782,-396"/>
<text text-anchor="middle" x="755" y="-374.3" font-family="Times New Roman,serif" font-size="14.00">;</text>
</g>
<!-- n0052 -->
<g id="node41" class="node"><title>n0052</title>
<polygon fill="none" stroke="black" points="608,-468 554,-468 554,-432 608,-432 608,-468"/>
<text text-anchor="middle" x="581" y="-446.3" font-family="Times New Roman,serif" font-size="14.00">$t0</text>
</g>
<!-- n0053 -->
<g id="node42" class="node"><title>n0053</title>
<polygon fill="none" stroke="black" points="699.5,-468 626.5,-468 626.5,-432 699.5,-432 699.5,-468"/>
<text text-anchor="middle" x="663" y="-446.3" font-family="Times New Roman,serif" font-size="14.00">ARRAY_</text>
</g>
<!-- n0053&#45;&#45;n0048 -->
<g id="edge37" class="edge"><title>n0053&#45;&#45;n0048</title>
<path fill="none" stroke="black" d="M640.258,-431.697C625.998,-420.846 607.691,-406.917 593.48,-396.104"/>
</g>
<!-- n0053&#45;&#45;n0049 -->
<g id="edge38" class="edge"><title>n0053&#45;&#45;n0049</title>
<path fill="none" stroke="black" d="M663,-431.697C663,-420.846 663,-406.917 663,-396.104"/>
</g>
<!-- n0053&#45;&#45;n0050 -->
<g id="edge39" class="edge"><title>n0053&#45;&#45;n0050</title>
<path fill="none" stroke="black" d="M685.742,-431.697C700.002,-420.846 718.309,-406.917 732.52,-396.104"/>
</g>
<!-- n0055 -->
<g id="node43" class="node"><title>n0055</title>
<polygon fill="none" stroke="black" points="653.5,-540 520.5,-540 520.5,-504 653.5,-504 653.5,-540"/>
<text text-anchor="middle" x="587" y="-518.3" font-family="Times New Roman,serif" font-size="14.00">DECLARACIONES</text>
</g>
<!-- n0055&#45;&#45;n0052 -->
<g id="edge40" class="edge"><title>n0055&#45;&#45;n0052</title>
<path fill="none" stroke="black" d="M585.517,-503.697C584.587,-492.846 583.393,-478.917 582.466,-468.104"/>
</g>
<!-- n0055&#45;&#45;n0053 -->
<g id="edge41" class="edge"><title>n0055&#45;&#45;n0053</title>
<path fill="none" stroke="black" d="M605.787,-503.697C617.567,-492.846 632.69,-478.917 644.43,-468.104"/>
</g>
<!-- n0057 -->
<g id="node44" class="node"><title>n0057</title>
<polygon fill="none" stroke="black" points="476,-612 374,-612 374,-576 476,-576 476,-612"/>
<text text-anchor="middle" x="425" y="-590.3" font-family="Times New Roman,serif" font-size="14.00">SENTENCIAS</text>
</g>
<!-- n0057&#45;&#45;n0043 -->
<g id="edge42" class="edge"><title>n0057&#45;&#45;n0043</title>
<path fill="none" stroke="black" d="M389.284,-575.876C366.575,-564.988 337.286,-550.945 314.6,-540.068"/>
</g>
<!-- n0057&#45;&#45;n0044 -->
<g id="edge43" class="edge"><title>n0057&#45;&#45;n0044</title>
<path fill="none" stroke="black" d="M425,-575.697C425,-564.846 425,-550.917 425,-540.104"/>
</g>
<!-- n0058 -->
<g id="node45" class="node"><title>n0058</title>
<polygon fill="none" stroke="black" points="634,-612 540,-612 540,-576 634,-576 634,-612"/>
<text text-anchor="middle" x="587" y="-590.3" font-family="Times New Roman,serif" font-size="14.00">SENTENCIA</text>
</g>
<!-- n0058&#45;&#45;n0055 -->
<g id="edge44" class="edge"><title>n0058&#45;&#45;n0055</title>
<path fill="none" stroke="black" d="M587,-575.697C587,-564.846 587,-550.917 587,-540.104"/>
</g>
<!-- n0059 -->
<g id="node46" class="node"><title>n0059</title>
<polygon fill="none" stroke="black" points="869,-252 815,-252 815,-216 869,-216 869,-252"/>
<text text-anchor="middle" x="842" y="-230.3" font-family="Times New Roman,serif" font-size="14.00">101</text>
</g>
<!-- n0060 -->
<g id="node47" class="node"><title>n0060</title>
<polygon fill="none" stroke="black" points="869,-324 815,-324 815,-288 869,-288 869,-324"/>
<text text-anchor="middle" x="842" y="-302.3" font-family="Times New Roman,serif" font-size="14.00">F</text>
</g>
<!-- n0060&#45;&#45;n0059 -->
<g id="edge45" class="edge"><title>n0060&#45;&#45;n0059</title>
<path fill="none" stroke="black" d="M842,-287.697C842,-276.846 842,-262.917 842,-252.104"/>
</g>
<!-- n0061 -->
<g id="node48" class="node"><title>n0061</title>
<polygon fill="none" stroke="black" points="883.5,-396 800.5,-396 800.5,-360 883.5,-360 883.5,-396"/>
<text text-anchor="middle" x="842" y="-374.3" font-family="Times New Roman,serif" font-size="14.00">ATOMICO</text>
</g>
<!-- n0061&#45;&#45;n0060 -->
<g id="edge46" class="edge"><title>n0061&#45;&#45;n0060</title>
<path fill="none" stroke="black" d="M842,-359.697C842,-348.846 842,-334.917 842,-324.104"/>
</g>
<!-- n0062 -->
<g id="node49" class="node"><title>n0062</title>
<polygon fill="none" stroke="black" points="774,-468 720,-468 720,-432 774,-432 774,-468"/>
<text text-anchor="middle" x="747" y="-446.3" font-family="Times New Roman,serif" font-size="14.00">=</text>
</g>
<!-- n0063 -->
<g id="node50" class="node"><title>n0063</title>
<polygon fill="none" stroke="black" points="886,-468 792,-468 792,-432 886,-432 886,-468"/>
<text text-anchor="middle" x="839" y="-446.3" font-family="Times New Roman,serif" font-size="14.00">EXPRESION</text>
</g>
<!-- n0063&#45;&#45;n0061 -->
<g id="edge47" class="edge"><title>n0063&#45;&#45;n0061</title>
<path fill="none" stroke="black" d="M839.742,-431.697C840.207,-420.846 840.804,-406.917 841.267,-396.104"/>
</g>
<!-- n0064 -->
<g id="node51" class="node"><title>n0064</title>
<polygon fill="none" stroke="black" points="958,-468 904,-468 904,-432 958,-432 958,-468"/>
<text text-anchor="middle" x="931" y="-446.3" font-family="Times New Roman,serif" font-size="14.00">;</text>
</g>
<!-- n0066 -->
<g id="node52" class="node"><title>n0066</title>
<polygon fill="none" stroke="black" points="761,-540 707,-540 707,-504 761,-504 761,-540"/>
<text text-anchor="middle" x="734" y="-518.3" font-family="Times New Roman,serif" font-size="14.00">$t1</text>
</g>
<!-- n0067 -->
<g id="node53" class="node"><title>n0067</title>
<polygon fill="none" stroke="black" points="860.5,-540 787.5,-540 787.5,-504 860.5,-504 860.5,-540"/>
<text text-anchor="middle" x="824" y="-518.3" font-family="Times New Roman,serif" font-size="14.00">ARRAY_</text>
</g>
<!-- n0067&#45;&#45;n0062 -->
<g id="edge48" class="edge"><title>n0067&#45;&#45;n0062</title>
<path fill="none" stroke="black" d="M804.966,-503.697C793.031,-492.846 777.708,-478.917 765.815,-468.104"/>
</g>
<!-- n0067&#45;&#45;n0063 -->
<g id="edge49" class="edge"><title>n0067&#45;&#45;n0063</title>
<path fill="none" stroke="black" d="M827.708,-503.697C830.033,-492.846 833.018,-478.917 835.335,-468.104"/>
</g>
<!-- n0067&#45;&#45;n0064 -->
<g id="edge50" class="edge"><title>n0067&#45;&#45;n0064</title>
<path fill="none" stroke="black" d="M850.175,-503.876C866.756,-493.029 888.124,-479.05 904.724,-468.19"/>
</g>
<!-- n0069 -->
<g id="node54" class="node"><title>n0069</title>
<polygon fill="none" stroke="black" points="800.5,-612 667.5,-612 667.5,-576 800.5,-576 800.5,-612"/>
<text text-anchor="middle" x="734" y="-590.3" font-family="Times New Roman,serif" font-size="14.00">DECLARACIONES</text>
</g>
<!-- n0069&#45;&#45;n0066 -->
<g id="edge51" class="edge"><title>n0069&#45;&#45;n0066</title>
<path fill="none" stroke="black" d="M734,-575.697C734,-564.846 734,-550.917 734,-540.104"/>
</g>
<!-- n0069&#45;&#45;n0067 -->
<g id="edge52" class="edge"><title>n0069&#45;&#45;n0067</title>
<path fill="none" stroke="black" d="M756.247,-575.697C770.198,-564.846 788.107,-550.917 802.009,-540.104"/>
</g>
<!-- n0071 -->
<g id="node55" class="node"><title>n0071</title>
<polygon fill="none" stroke="black" points="638,-684 536,-684 536,-648 638,-648 638,-684"/>
<text text-anchor="middle" x="587" y="-662.3" font-family="Times New Roman,serif" font-size="14.00">SENTENCIAS</text>
</g>
<!-- n0071&#45;&#45;n0057 -->
<g id="edge53" class="edge"><title>n0071&#45;&#45;n0057</title>
<path fill="none" stroke="black" d="M547.37,-647.876C522.173,-636.988 489.674,-622.945 464.501,-612.068"/>
</g>
<!-- n0071&#45;&#45;n0058 -->
<g id="edge54" class="edge"><title>n0071&#45;&#45;n0058</title>
<path fill="none" stroke="black" d="M587,-647.697C587,-636.846 587,-622.917 587,-612.104"/>
</g>
<!-- n0072 -->
<g id="node56" class="node"><title>n0072</title>
<polygon fill="none" stroke="black" points="781,-684 687,-684 687,-648 781,-648 781,-684"/>
<text text-anchor="middle" x="734" y="-662.3" font-family="Times New Roman,serif" font-size="14.00">SENTENCIA</text>
</g>
<!-- n0072&#45;&#45;n0069 -->
<g id="edge55" class="edge"><title>n0072&#45;&#45;n0069</title>
<path fill="none" stroke="black" d="M734,-647.697C734,-636.846 734,-622.917 734,-612.104"/>
</g>
<!-- n0073 -->
<g id="node57" class="node"><title>n0073</title>
<polygon fill="none" stroke="black" points="1037,-396 983,-396 983,-360 1037,-360 1037,-396"/>
<text text-anchor="middle" x="1010" y="-374.3" font-family="Times New Roman,serif" font-size="14.00">$t1</text>
</g>
<!-- n0074 -->
<g id="node58" class="node"><title>n0074</title>
<polygon fill="none" stroke="black" points="1037,-468 983,-468 983,-432 1037,-432 1037,-468"/>
<text text-anchor="middle" x="1010" y="-446.3" font-family="Times New Roman,serif" font-size="14.00">F</text>
</g>
<!-- n0074&#45;&#45;n0073 -->
<g id="edge56" class="edge"><title>n0074&#45;&#45;n0073</title>
<path fill="none" stroke="black" d="M1010,-431.697C1010,-420.846 1010,-406.917 1010,-396.104"/>
</g>
<!-- n0075 -->
<g id="node59" class="node"><title>n0075</title>
<polygon fill="none" stroke="black" points="1051.5,-540 968.5,-540 968.5,-504 1051.5,-504 1051.5,-540"/>
<text text-anchor="middle" x="1010" y="-518.3" font-family="Times New Roman,serif" font-size="14.00">ATOMICO</text>
</g>
<!-- n0075&#45;&#45;n0074 -->
<g id="edge57" class="edge"><title>n0075&#45;&#45;n0074</title>
<path fill="none" stroke="black" d="M1010,-503.697C1010,-492.846 1010,-478.917 1010,-468.104"/>
</g>
<!-- n0076 -->
<g id="node60" class="node"><title>n0076</title>
<polygon fill="none" stroke="black" points="873,-612 819,-612 819,-576 873,-576 873,-612"/>
<text text-anchor="middle" x="846" y="-590.3" font-family="Times New Roman,serif" font-size="14.00">print</text>
</g>
<!-- n0077 -->
<g id="node61" class="node"><title>n0077</title>
<polygon fill="none" stroke="black" points="945,-612 891,-612 891,-576 945,-576 945,-612"/>
<text text-anchor="middle" x="918" y="-590.3" font-family="Times New Roman,serif" font-size="14.00">(</text>
</g>
<!-- n0078 -->
<g id="node62" class="node"><title>n0078</title>
<polygon fill="none" stroke="black" points="1057,-612 963,-612 963,-576 1057,-576 1057,-612"/>
<text text-anchor="middle" x="1010" y="-590.3" font-family="Times New Roman,serif" font-size="14.00">EXPRESION</text>
</g>
<!-- n0078&#45;&#45;n0075 -->
<g id="edge58" class="edge"><title>n0078&#45;&#45;n0075</title>
<path fill="none" stroke="black" d="M1010,-575.697C1010,-564.846 1010,-550.917 1010,-540.104"/>
</g>
<!-- n0079 -->
<g id="node63" class="node"><title>n0079</title>
<polygon fill="none" stroke="black" points="1129,-612 1075,-612 1075,-576 1129,-576 1129,-612"/>
<text text-anchor="middle" x="1102" y="-590.3" font-family="Times New Roman,serif" font-size="14.00">)</text>
</g>
<!-- n0080 -->
<g id="node64" class="node"><title>n0080</title>
<polygon fill="none" stroke="black" points="1201,-612 1147,-612 1147,-576 1201,-576 1201,-612"/>
<text text-anchor="middle" x="1174" y="-590.3" font-family="Times New Roman,serif" font-size="14.00">;</text>
</g>
<!-- n0081 -->
<g id="node65" class="node"><title>n0081</title>
<polygon fill="none" stroke="black" points="1063,-684 935,-684 935,-648 1063,-648 1063,-684"/>
<text text-anchor="middle" x="999" y="-662.3" font-family="Times New Roman,serif" font-size="14.00">INSTRUCCIONES</text>
</g>
<!-- n0081&#45;&#45;n0076 -->
<g id="edge59" class="edge"><title>n0081&#45;&#45;n0076</title>
<path fill="none" stroke="black" d="M960.992,-647.966C938.071,-637.648 908.311,-624.171 882,-612 879.114,-610.665 876.103,-609.261 873.105,-607.856"/>
</g>
<!-- n0081&#45;&#45;n0077 -->
<g id="edge60" class="edge"><title>n0081&#45;&#45;n0077</title>
<path fill="none" stroke="black" d="M978.978,-647.697C966.422,-636.846 950.304,-622.917 937.792,-612.104"/>
</g>
<!-- n0081&#45;&#45;n0078 -->
<g id="edge61" class="edge"><title>n0081&#45;&#45;n0078</title>
<path fill="none" stroke="black" d="M1001.72,-647.697C1003.42,-636.846 1005.61,-622.917 1007.31,-612.104"/>
</g>
<!-- n0081&#45;&#45;n0079 -->
<g id="edge62" class="edge"><title>n0081&#45;&#45;n0079</title>
<path fill="none" stroke="black" d="M1024.2,-647.876C1040.16,-637.029 1060.73,-623.05 1076.71,-612.19"/>
</g>
<!-- n0081&#45;&#45;n0080 -->
<g id="edge63" class="edge"><title>n0081&#45;&#45;n0080</title>
<path fill="none" stroke="black" d="M1046.33,-647.982C1073.38,-637.999 1107.82,-624.855 1138,-612 1140.93,-610.754 1143.96,-609.407 1146.97,-608.035"/>
</g>
<!-- n0083 -->
<g id="node66" class="node"><title>n0083</title>
<polygon fill="none" stroke="black" points="785,-756 683,-756 683,-720 785,-720 785,-756"/>
<text text-anchor="middle" x="734" y="-734.3" font-family="Times New Roman,serif" font-size="14.00">SENTENCIAS</text>
</g>
<!-- n0083&#45;&#45;n0071 -->
<g id="edge64" class="edge"><title>n0083&#45;&#45;n0071</title>
<path fill="none" stroke="black" d="M698.04,-719.876C675.175,-708.988 645.685,-694.945 622.843,-684.068"/>
</g>
<!-- n0083&#45;&#45;n0072 -->
<g id="edge65" class="edge"><title>n0083&#45;&#45;n0072</title>
<path fill="none" stroke="black" d="M734,-719.697C734,-708.846 734,-694.917 734,-684.104"/>
</g>
<!-- n0084 -->
<g id="node67" class="node"><title>n0084</title>
<polygon fill="none" stroke="black" points="1046,-756 952,-756 952,-720 1046,-720 1046,-756"/>
<text text-anchor="middle" x="999" y="-734.3" font-family="Times New Roman,serif" font-size="14.00">SENTENCIA</text>
</g>
<!-- n0084&#45;&#45;n0081 -->
<g id="edge66" class="edge"><title>n0084&#45;&#45;n0081</title>
<path fill="none" stroke="black" d="M999,-719.697C999,-708.846 999,-694.917 999,-684.104"/>
</g>
<!-- n0085 -->
<g id="node68" class="node"><title>n0085</title>
<polygon fill="none" stroke="black" points="1299,-468 1245,-468 1245,-432 1299,-432 1299,-468"/>
<text text-anchor="middle" x="1272" y="-446.3" font-family="Times New Roman,serif" font-size="14.00">$t2</text>
</g>
<!-- n0086 -->
<g id="node69" class="node"><title>n0086</title>
<polygon fill="none" stroke="black" points="1299,-540 1245,-540 1245,-504 1299,-504 1299,-540"/>
<text text-anchor="middle" x="1272" y="-518.3" font-family="Times New Roman,serif" font-size="14.00">F</text>
</g>
<!-- n0086&#45;&#45;n0085 -->
<g id="edge67" class="edge"><title>n0086&#45;&#45;n0085</title>
<path fill="none" stroke="black" d="M1272,-503.697C1272,-492.846 1272,-478.917 1272,-468.104"/>
</g>
<!-- n0087 -->
<g id="node70" class="node"><title>n0087</title>
<polygon fill="none" stroke="black" points="1313.5,-612 1230.5,-612 1230.5,-576 1313.5,-576 1313.5,-612"/>
<text text-anchor="middle" x="1272" y="-590.3" font-family="Times New Roman,serif" font-size="14.00">ATOMICO</text>
</g>
<!-- n0087&#45;&#45;n0086 -->
<g id="edge68" class="edge"><title>n0087&#45;&#45;n0086</title>
<path fill="none" stroke="black" d="M1272,-575.697C1272,-564.846 1272,-550.917 1272,-540.104"/>
</g>
<!-- n0088 -->
<g id="node71" class="node"><title>n0088</title>
<polygon fill="none" stroke="black" points="1135,-684 1081,-684 1081,-648 1135,-648 1135,-684"/>
<text text-anchor="middle" x="1108" y="-662.3" font-family="Times New Roman,serif" font-size="14.00">print</text>
</g>
<!-- n0089 -->
<g id="node72" class="node"><title>n0089</title>
<polygon fill="none" stroke="black" points="1207,-684 1153,-684 1153,-648 1207,-648 1207,-684"/>
<text text-anchor="middle" x="1180" y="-662.3" font-family="Times New Roman,serif" font-size="14.00">(</text>
</g>
<!-- n0090 -->
<g id="node73" class="node"><title>n0090</title>
<polygon fill="none" stroke="black" points="1319,-684 1225,-684 1225,-648 1319,-648 1319,-684"/>
<text text-anchor="middle" x="1272" y="-662.3" font-family="Times New Roman,serif" font-size="14.00">EXPRESION</text>
</g>
<!-- n0090&#45;&#45;n0087 -->
<g id="edge69" class="edge"><title>n0090&#45;&#45;n0087</title>
<path fill="none" stroke="black" d="M1272,-647.697C1272,-636.846 1272,-622.917 1272,-612.104"/>
</g>
<!-- n0091 -->
<g id="node74" class="node"><title>n0091</title>
<polygon fill="none" stroke="black" points="1391,-684 1337,-684 1337,-648 1391,-648 1391,-684"/>
<text text-anchor="middle" x="1364" y="-662.3" font-family="Times New Roman,serif" font-size="14.00">)</text>
</g>
<!-- n0092 -->
<g id="node75" class="node"><title>n0092</title>
<polygon fill="none" stroke="black" points="1463,-684 1409,-684 1409,-648 1463,-648 1463,-684"/>
<text text-anchor="middle" x="1436" y="-662.3" font-family="Times New Roman,serif" font-size="14.00">;</text>
</g>
<!-- n0093 -->
<g id="node76" class="node"><title>n0093</title>
<polygon fill="none" stroke="black" points="1290,-756 1162,-756 1162,-720 1290,-720 1290,-756"/>
<text text-anchor="middle" x="1226" y="-734.3" font-family="Times New Roman,serif" font-size="14.00">INSTRUCCIONES</text>
</g>
<!-- n0093&#45;&#45;n0088 -->
<g id="edge70" class="edge"><title>n0093&#45;&#45;n0088</title>
<path fill="none" stroke="black" d="M1197.13,-719.876C1178.3,-708.705 1153.87,-694.212 1135.35,-683.226"/>
</g>
<!-- n0093&#45;&#45;n0089 -->
<g id="edge71" class="edge"><title>n0093&#45;&#45;n0089</title>
<path fill="none" stroke="black" d="M1214.63,-719.697C1207.5,-708.846 1198.35,-694.917 1191.24,-684.104"/>
</g>
<!-- n0093&#45;&#45;n0090 -->
<g id="edge72" class="edge"><title>n0093&#45;&#45;n0090</title>
<path fill="none" stroke="black" d="M1237.37,-719.697C1244.5,-708.846 1253.65,-694.917 1260.76,-684.104"/>
</g>
<!-- n0093&#45;&#45;n0091 -->
<g id="edge73" class="edge"><title>n0093&#45;&#45;n0091</title>
<path fill="none" stroke="black" d="M1259.76,-719.876C1283.38,-707.895 1314.53,-692.095 1336.61,-680.895"/>
</g>
<!-- n0093&#45;&#45;n0092 -->
<g id="edge74" class="edge"><title>n0093&#45;&#45;n0092</title>
<path fill="none" stroke="black" d="M1289.98,-719.926C1323.19,-710.458 1364.21,-697.818 1400,-684 1402.84,-682.905 1405.76,-681.684 1408.66,-680.413"/>
</g>
<!-- n0095 -->
<g id="node77" class="node"><title>n0095</title>
<polygon fill="none" stroke="black" points="1050,-828 948,-828 948,-792 1050,-792 1050,-828"/>
<text text-anchor="middle" x="999" y="-806.3" font-family="Times New Roman,serif" font-size="14.00">SENTENCIAS</text>
</g>
<!-- n0095&#45;&#45;n0083 -->
<g id="edge75" class="edge"><title>n0095&#45;&#45;n0083</title>
<path fill="none" stroke="black" d="M947.905,-795.503C901.13,-783.148 832.257,-764.955 785.389,-752.575"/>
</g>
<!-- n0095&#45;&#45;n0084 -->
<g id="edge76" class="edge"><title>n0095&#45;&#45;n0084</title>
<path fill="none" stroke="black" d="M999,-791.697C999,-780.846 999,-766.917 999,-756.104"/>
</g>
<!-- n0096 -->
<g id="node78" class="node"><title>n0096</title>
<polygon fill="none" stroke="black" points="1194,-828 1100,-828 1100,-792 1194,-792 1194,-828"/>
<text text-anchor="middle" x="1147" y="-806.3" font-family="Times New Roman,serif" font-size="14.00">SENTENCIA</text>
</g>
<!-- n0096&#45;&#45;n0093 -->
<g id="edge77" class="edge"><title>n0096&#45;&#45;n0093</title>
<path fill="none" stroke="black" d="M1166.53,-791.697C1178.77,-780.846 1194.49,-766.917 1206.7,-756.104"/>
</g>
<!-- n0098 -->
<g id="node79" class="node"><title>n0098</title>
<polygon fill="none" stroke="black" points="916,-900 862,-900 862,-864 916,-864 916,-900"/>
<text text-anchor="middle" x="889" y="-878.3" font-family="Times New Roman,serif" font-size="14.00">MAIN</text>
</g>
<!-- n0099 -->
<g id="node80" class="node"><title>n0099</title>
<polygon fill="none" stroke="black" points="988,-900 934,-900 934,-864 988,-864 988,-900"/>
<text text-anchor="middle" x="961" y="-878.3" font-family="Times New Roman,serif" font-size="14.00">:</text>
</g>
<!-- n00100 -->
<g id="node81" class="node"><title>n00100</title>
<polygon fill="none" stroke="black" points="1108,-900 1006,-900 1006,-864 1108,-864 1108,-900"/>
<text text-anchor="middle" x="1057" y="-878.3" font-family="Times New Roman,serif" font-size="14.00">SENTENCIAS</text>
</g>
<!-- n00100&#45;&#45;n0095 -->
<g id="edge78" class="edge"><title>n00100&#45;&#45;n0095</title>
<path fill="none" stroke="black" d="M1042.66,-863.697C1033.67,-852.846 1022.13,-838.917 1013.17,-828.104"/>
</g>
<!-- n00100&#45;&#45;n0096 -->
<g id="edge79" class="edge"><title>n00100&#45;&#45;n0096</title>
<path fill="none" stroke="black" d="M1079.25,-863.697C1093.2,-852.846 1111.11,-838.917 1125.01,-828.104"/>
</g>
<!-- n00101 -->
<g id="node82" class="node"><title>n00101</title>
<polygon fill="none" stroke="black" points="988,-972 934,-972 934,-936 988,-936 988,-972"/>
<text text-anchor="middle" x="961" y="-950.3" font-family="Times New Roman,serif" font-size="14.00">A</text>
</g>
<!-- n00101&#45;&#45;n0098 -->
<g id="edge80" class="edge"><title>n00101&#45;&#45;n0098</title>
<path fill="none" stroke="black" d="M943.202,-935.697C932.042,-924.846 917.714,-910.917 906.593,-900.104"/>
</g>
<!-- n00101&#45;&#45;n0099 -->
<g id="edge81" class="edge"><title>n00101&#45;&#45;n0099</title>
<path fill="none" stroke="black" d="M961,-935.697C961,-924.846 961,-910.917 961,-900.104"/>
</g>
<!-- n00101&#45;&#45;n00100 -->
<g id="edge82" class="edge"><title>n00101&#45;&#45;n00100</title>
<path fill="none" stroke="black" d="M984.73,-935.697C999.611,-924.846 1018.71,-910.917 1033.54,-900.104"/>
</g>
<!-- n00102 -->
<g id="node83" class="node"><title>n00102</title>
<polygon fill="none" stroke="black" points="988,-1044 934,-1044 934,-1008 988,-1008 988,-1044"/>
<text text-anchor="middle" x="961" y="-1022.3" font-family="Times New Roman,serif" font-size="14.00">S</text>
</g>
<!-- n00102&#45;&#45;n00101 -->
<g id="edge83" class="edge"><title>n00102&#45;&#45;n00101</title>
<path fill="none" stroke="black" d="M961,-1007.7C961,-996.846 961,-982.917 961,-972.104"/>
</g>
</g>
</svg>
