<?xml version="1.0" encoding="UTF-8" standalone="no"?>
<!DOCTYPE svg PUBLIC "-//W3C//DTD SVG 1.1//EN"
 "http://www.w3.org/Graphics/SVG/1.1/DTD/svg11.dtd">
<!-- Generated by graphviz version 2.38.0 (20140413.2041)
 -->
<!-- Pages: 1 -->
<svg width="535pt" height="476pt"
 viewBox="0.00 0.00 535.00 476.00" xmlns="http://www.w3.org/2000/svg" xmlns:xlink="http://www.w3.org/1999/xlink">
<g id="graph0" class="graph" transform="scale(1 1) rotate(0) translate(4 472)">
<polygon fill="white" stroke="none" points="-4,4 -4,-472 531,-472 531,4 -4,4"/>
<!-- n000 -->
<g id="node1" class="node"><title>n000</title>
<polygon fill="none" stroke="black" points="276,-468 222,-468 222,-432 276,-432 276,-468"/>
<text text-anchor="middle" x="249" y="-446.3" font-family="Times New Roman,serif" font-size="14.00">S</text>
</g>
<!-- n000&#45;&#45;n000 -->
<g id="edge1" class="edge"><title>n000&#45;&#45;n000</title>
<path fill="none" stroke="black" d="M276.241,-463.487C286.024,-463.777 294,-459.281 294,-450 294,-440.719 286.024,-436.223 276.241,-436.513"/>
</g>
<!-- n001 -->
<g id="node2" class="node"><title>n001</title>
<polygon fill="none" stroke="black" points="276,-396 222,-396 222,-360 276,-360 276,-396"/>
<text text-anchor="middle" x="249" y="-374.3" font-family="Times New Roman,serif" font-size="14.00">A</text>
</g>
<!-- n000&#45;&#45;n001 -->
<g id="edge2" class="edge"><title>n000&#45;&#45;n001</title>
<path fill="none" stroke="black" d="M249,-431.697C249,-420.846 249,-406.917 249,-396.104"/>
</g>
<!-- n002 -->
<g id="node3" class="node"><title>n002</title>
<polygon fill="none" stroke="black" points="351.5,-324 146.5,-324 146.5,-288 351.5,-288 351.5,-324"/>
<text text-anchor="middle" x="249" y="-302.3" font-family="Times New Roman,serif" font-size="14.00">INSTRUCCIONES GLOBALES</text>
</g>
<!-- n001&#45;&#45;n002 -->
<g id="edge3" class="edge"><title>n001&#45;&#45;n002</title>
<path fill="none" stroke="black" d="M249,-359.697C249,-348.846 249,-334.917 249,-324.104"/>
</g>
<!-- n003 -->
<g id="node4" class="node"><title>n003</title>
<polygon fill="none" stroke="black" points="322.5,-252 175.5,-252 175.5,-216 322.5,-216 322.5,-252"/>
<text text-anchor="middle" x="249" y="-230.3" font-family="Times New Roman,serif" font-size="14.00">DECLA_VARIABLES</text>
</g>
<!-- n002&#45;&#45;n003 -->
<g id="edge4" class="edge"><title>n002&#45;&#45;n003</title>
<path fill="none" stroke="black" d="M249,-287.697C249,-276.846 249,-262.917 249,-252.104"/>
</g>
<!-- n004 -->
<g id="node5" class="node"><title>n004</title>
<polygon fill="none" stroke="black" points="54,-180 0,-180 0,-144 54,-144 54,-180"/>
<text text-anchor="middle" x="27" y="-158.3" font-family="Times New Roman,serif" font-size="14.00">TIPO</text>
</g>
<!-- n003&#45;&#45;n004 -->
<g id="edge5" class="edge"><title>n003&#45;&#45;n004</title>
<path fill="none" stroke="black" d="M178.786,-215.9C143.585,-206.598 100.561,-194.112 63,-180 60.1531,-178.93 57.2213,-177.726 54.318,-176.466"/>
</g>
<!-- n006 -->
<g id="node7" class="node"><title>n006</title>
<polygon fill="none" stroke="black" points="126,-180 72,-180 72,-144 126,-144 126,-180"/>
<text text-anchor="middle" x="99" y="-158.3" font-family="Times New Roman,serif" font-size="14.00">a</text>
</g>
<!-- n003&#45;&#45;n006 -->
<g id="edge7" class="edge"><title>n003&#45;&#45;n006</title>
<path fill="none" stroke="black" d="M212.265,-215.99C189.912,-205.622 160.792,-192.085 135,-180 132.121,-178.651 129.114,-177.238 126.119,-175.827"/>
</g>
<!-- n007 -->
<g id="node8" class="node"><title>n007</title>
<polygon fill="none" stroke="black" points="203.5,-180 144.5,-180 144.5,-144 203.5,-144 203.5,-180"/>
<text text-anchor="middle" x="174" y="-158.3" font-family="Times New Roman,serif" font-size="14.00">ASIGN</text>
</g>
<!-- n003&#45;&#45;n007 -->
<g id="edge8" class="edge"><title>n003&#45;&#45;n007</title>
<path fill="none" stroke="black" d="M230.461,-215.697C218.835,-204.846 203.911,-190.917 192.326,-180.104"/>
</g>
<!-- n0011 -->
<g id="node12" class="node"><title>n0011</title>
<polygon fill="none" stroke="black" points="276,-180 222,-180 222,-144 276,-144 276,-180"/>
<text text-anchor="middle" x="249" y="-158.3" font-family="Times New Roman,serif" font-size="14.00">,</text>
</g>
<!-- n003&#45;&#45;n0011 -->
<g id="edge12" class="edge"><title>n003&#45;&#45;n0011</title>
<path fill="none" stroke="black" d="M249,-215.697C249,-204.846 249,-190.917 249,-180.104"/>
</g>
<!-- n0012 -->
<g id="node13" class="node"><title>n0012</title>
<polygon fill="none" stroke="black" points="348,-180 294,-180 294,-144 348,-144 348,-180"/>
<text text-anchor="middle" x="321" y="-158.3" font-family="Times New Roman,serif" font-size="14.00">b</text>
</g>
<!-- n003&#45;&#45;n0012 -->
<g id="edge13" class="edge"><title>n003&#45;&#45;n0012</title>
<path fill="none" stroke="black" d="M266.798,-215.697C277.958,-204.846 292.286,-190.917 303.407,-180.104"/>
</g>
<!-- n0013 -->
<g id="node14" class="node"><title>n0013</title>
<polygon fill="none" stroke="black" points="425.5,-180 366.5,-180 366.5,-144 425.5,-144 425.5,-180"/>
<text text-anchor="middle" x="396" y="-158.3" font-family="Times New Roman,serif" font-size="14.00">ASIGN</text>
</g>
<!-- n003&#45;&#45;n0013 -->
<g id="edge14" class="edge"><title>n003&#45;&#45;n0013</title>
<path fill="none" stroke="black" d="M284.96,-215.876C309.95,-203.976 342.853,-188.308 366.342,-177.123"/>
</g>
<!-- n0019 -->
<g id="node20" class="node"><title>n0019</title>
<polygon fill="none" stroke="black" points="498,-180 444,-180 444,-144 498,-144 498,-180"/>
<text text-anchor="middle" x="471" y="-158.3" font-family="Times New Roman,serif" font-size="14.00">,</text>
</g>
<!-- n003&#45;&#45;n0019 -->
<g id="edge20" class="edge"><title>n003&#45;&#45;n0019</title>
<path fill="none" stroke="black" d="M319.214,-215.9C354.415,-206.598 397.439,-194.112 435,-180 437.847,-178.93 440.779,-177.726 443.682,-176.466"/>
</g>
<!-- n005 -->
<g id="node6" class="node"><title>n005</title>
<polygon fill="none" stroke="black" points="54,-108 0,-108 0,-72 54,-72 54,-108"/>
<text text-anchor="middle" x="27" y="-86.3" font-family="Times New Roman,serif" font-size="14.00">int</text>
</g>
<!-- n004&#45;&#45;n005 -->
<g id="edge6" class="edge"><title>n004&#45;&#45;n005</title>
<path fill="none" stroke="black" d="M27,-143.697C27,-132.846 27,-118.917 27,-108.104"/>
</g>
<!-- n008 -->
<g id="node9" class="node"><title>n008</title>
<polygon fill="none" stroke="black" points="169,-108 115,-108 115,-72 169,-72 169,-108"/>
<text text-anchor="middle" x="142" y="-86.3" font-family="Times New Roman,serif" font-size="14.00">=</text>
</g>
<!-- n007&#45;&#45;n008 -->
<g id="edge9" class="edge"><title>n007&#45;&#45;n008</title>
<path fill="none" stroke="black" d="M166.09,-143.697C161.13,-132.846 154.762,-118.917 149.819,-108.104"/>
</g>
<!-- n009 -->
<g id="node10" class="node"><title>n009</title>
<polygon fill="none" stroke="black" points="281,-108 187,-108 187,-72 281,-72 281,-108"/>
<text text-anchor="middle" x="234" y="-86.3" font-family="Times New Roman,serif" font-size="14.00">EXPRESION</text>
</g>
<!-- n007&#45;&#45;n009 -->
<g id="edge10" class="edge"><title>n007&#45;&#45;n009</title>
<path fill="none" stroke="black" d="M188.831,-143.697C198.132,-132.846 210.071,-118.917 219.339,-108.104"/>
</g>
<!-- n0010 -->
<g id="node11" class="node"><title>n0010</title>
<polygon fill="none" stroke="black" points="261,-36 207,-36 207,-0 261,-0 261,-36"/>
<text text-anchor="middle" x="234" y="-14.3" font-family="Times New Roman,serif" font-size="14.00">2</text>
</g>
<!-- n009&#45;&#45;n0010 -->
<g id="edge11" class="edge"><title>n009&#45;&#45;n0010</title>
<path fill="none" stroke="black" d="M234,-71.6966C234,-60.8463 234,-46.9167 234,-36.1043"/>
</g>
<!-- n0014 -->
<g id="node15" class="node"><title>n0014</title>
<polygon fill="none" stroke="black" points="363,-108 309,-108 309,-72 363,-72 363,-108"/>
<text text-anchor="middle" x="336" y="-86.3" font-family="Times New Roman,serif" font-size="14.00">=</text>
</g>
<!-- n0013&#45;&#45;n0014 -->
<g id="edge15" class="edge"><title>n0013&#45;&#45;n0014</title>
<path fill="none" stroke="black" d="M381.169,-143.697C371.868,-132.846 359.929,-118.917 350.661,-108.104"/>
</g>
<!-- n0015 -->
<g id="node16" class="node"><title>n0015</title>
<polygon fill="none" stroke="black" points="475,-108 381,-108 381,-72 475,-72 475,-108"/>
<text text-anchor="middle" x="428" y="-86.3" font-family="Times New Roman,serif" font-size="14.00">EXPRESION</text>
</g>
<!-- n0013&#45;&#45;n0015 -->
<g id="edge16" class="edge"><title>n0013&#45;&#45;n0015</title>
<path fill="none" stroke="black" d="M403.91,-143.697C408.87,-132.846 415.238,-118.917 420.181,-108.104"/>
</g>
<!-- n0016 -->
<g id="node17" class="node"><title>n0016</title>
<polygon fill="none" stroke="black" points="383,-36 329,-36 329,-0 383,-0 383,-36"/>
<text text-anchor="middle" x="356" y="-14.3" font-family="Times New Roman,serif" font-size="14.00">2</text>
</g>
<!-- n0015&#45;&#45;n0016 -->
<g id="edge17" class="edge"><title>n0015&#45;&#45;n0016</title>
<path fill="none" stroke="black" d="M410.202,-71.6966C399.042,-60.8463 384.714,-46.9167 373.593,-36.1043"/>
</g>
<!-- n0017 -->
<g id="node18" class="node"><title>n0017</title>
<polygon fill="none" stroke="black" points="455,-36 401,-36 401,-0 455,-0 455,-36"/>
<text text-anchor="middle" x="428" y="-14.3" font-family="Times New Roman,serif" font-size="14.00">+</text>
</g>
<!-- n0015&#45;&#45;n0017 -->
<g id="edge18" class="edge"><title>n0015&#45;&#45;n0017</title>
<path fill="none" stroke="black" d="M428,-71.6966C428,-60.8463 428,-46.9167 428,-36.1043"/>
</g>
<!-- n0018 -->
<g id="node19" class="node"><title>n0018</title>
<polygon fill="none" stroke="black" points="527,-36 473,-36 473,-0 527,-0 527,-36"/>
<text text-anchor="middle" x="500" y="-14.3" font-family="Times New Roman,serif" font-size="14.00">3</text>
</g>
<!-- n0015&#45;&#45;n0018 -->
<g id="edge19" class="edge"><title>n0015&#45;&#45;n0018</title>
<path fill="none" stroke="black" d="M445.798,-71.6966C456.958,-60.8463 471.286,-46.9167 482.407,-36.1043"/>
</g>
</g>
</svg>
