<?xml version="1.0" encoding="UTF-8" standalone="no"?>
<!DOCTYPE svg PUBLIC "-//W3C//DTD SVG 1.1//EN"
 "http://www.w3.org/Graphics/SVG/1.1/DTD/svg11.dtd">
<!-- Generated by graphviz version 2.38.0 (20140413.2041)
 -->
<!-- Pages: 1 -->
<svg width="813pt" height="764pt"
 viewBox="0.00 0.00 812.50 764.00" xmlns="http://www.w3.org/2000/svg" xmlns:xlink="http://www.w3.org/1999/xlink">
<g id="graph0" class="graph" transform="scale(1 1) rotate(0) translate(4 760)">
<polygon fill="white" stroke="none" points="-4,4 -4,-760 808.5,-760 808.5,4 -4,4"/>
<!-- n000 -->
<g id="node1" class="node"><title>n000</title>
<polygon fill="none" stroke="black" points="198,-756 144,-756 144,-720 198,-720 198,-756"/>
<text text-anchor="middle" x="171" y="-734.3" font-family="Times New Roman,serif" font-size="14.00">S</text>
</g>
<!-- n000&#45;&#45;n000 -->
<g id="edge1" class="edge"><title>n000&#45;&#45;n000</title>
<path fill="none" stroke="black" d="M198.241,-751.487C208.024,-751.777 216,-747.281 216,-738 216,-728.719 208.024,-724.223 198.241,-724.513"/>
</g>
<!-- n001 -->
<g id="node2" class="node"><title>n001</title>
<polygon fill="none" stroke="black" points="198,-684 144,-684 144,-648 198,-648 198,-684"/>
<text text-anchor="middle" x="171" y="-662.3" font-family="Times New Roman,serif" font-size="14.00">A</text>
</g>
<!-- n000&#45;&#45;n001 -->
<g id="edge2" class="edge"><title>n000&#45;&#45;n001</title>
<path fill="none" stroke="black" d="M171,-719.697C171,-708.846 171,-694.917 171,-684.104"/>
</g>
<!-- n002 -->
<g id="node3" class="node"><title>n002</title>
<polygon fill="none" stroke="black" points="273.5,-612 68.5,-612 68.5,-576 273.5,-576 273.5,-612"/>
<text text-anchor="middle" x="171" y="-590.3" font-family="Times New Roman,serif" font-size="14.00">INSTRUCCIONES GLOBALES</text>
</g>
<!-- n001&#45;&#45;n002 -->
<g id="edge3" class="edge"><title>n001&#45;&#45;n002</title>
<path fill="none" stroke="black" d="M171,-647.697C171,-636.846 171,-622.917 171,-612.104"/>
</g>
<!-- n003 -->
<g id="node4" class="node"><title>n003</title>
<polygon fill="none" stroke="black" points="245.5,-540 96.5,-540 96.5,-504 245.5,-504 245.5,-540"/>
<text text-anchor="middle" x="171" y="-518.3" font-family="Times New Roman,serif" font-size="14.00">DECLA_FUNCIONES</text>
</g>
<!-- n002&#45;&#45;n003 -->
<g id="edge4" class="edge"><title>n002&#45;&#45;n003</title>
<path fill="none" stroke="black" d="M171,-575.697C171,-564.846 171,-550.917 171,-540.104"/>
</g>
<!-- n004 -->
<g id="node5" class="node"><title>n004</title>
<polygon fill="none" stroke="black" points="54,-468 0,-468 0,-432 54,-432 54,-468"/>
<text text-anchor="middle" x="27" y="-446.3" font-family="Times New Roman,serif" font-size="14.00">TIPO</text>
</g>
<!-- n003&#45;&#45;n004 -->
<g id="edge5" class="edge"><title>n003&#45;&#45;n004</title>
<path fill="none" stroke="black" d="M135.774,-503.876C110.628,-491.653 77.3023,-475.453 54.195,-464.22"/>
</g>
<!-- n006 -->
<g id="node7" class="node"><title>n006</title>
<polygon fill="none" stroke="black" points="126,-468 72,-468 72,-432 126,-432 126,-468"/>
<text text-anchor="middle" x="99" y="-446.3" font-family="Times New Roman,serif" font-size="14.00">main</text>
</g>
<!-- n003&#45;&#45;n006 -->
<g id="edge7" class="edge"><title>n003&#45;&#45;n006</title>
<path fill="none" stroke="black" d="M153.202,-503.697C142.042,-492.846 127.714,-478.917 116.593,-468.104"/>
</g>
<!-- n007 -->
<g id="node8" class="node"><title>n007</title>
<polygon fill="none" stroke="black" points="198,-468 144,-468 144,-432 198,-432 198,-468"/>
<text text-anchor="middle" x="171" y="-446.3" font-family="Times New Roman,serif" font-size="14.00">(</text>
</g>
<!-- n003&#45;&#45;n007 -->
<g id="edge8" class="edge"><title>n003&#45;&#45;n007</title>
<path fill="none" stroke="black" d="M171,-503.697C171,-492.846 171,-478.917 171,-468.104"/>
</g>
<!-- n008 -->
<g id="node9" class="node"><title>n008</title>
<polygon fill="none" stroke="black" points="421.5,-468 216.5,-468 216.5,-432 421.5,-432 421.5,-468"/>
<text text-anchor="middle" x="319" y="-446.3" font-family="Times New Roman,serif" font-size="14.00">INSTRUCCIONES_INTERNAS</text>
</g>
<!-- n003&#45;&#45;n008 -->
<g id="edge9" class="edge"><title>n003&#45;&#45;n008</title>
<path fill="none" stroke="black" d="M207.205,-503.876C230.225,-492.988 259.915,-478.945 282.913,-468.068"/>
</g>
<!-- n0029 -->
<g id="node30" class="node"><title>n0029</title>
<polygon fill="none" stroke="black" points="494,-468 440,-468 440,-432 494,-432 494,-468"/>
<text text-anchor="middle" x="467" y="-446.3" font-family="Times New Roman,serif" font-size="14.00">)</text>
</g>
<!-- n003&#45;&#45;n0029 -->
<g id="edge30" class="edge"><title>n003&#45;&#45;n0029</title>
<path fill="none" stroke="black" d="M245.571,-510.388C297.965,-501.812 369.258,-487.878 430,-468 433.225,-466.945 436.541,-465.687 439.801,-464.341"/>
</g>
<!-- n005 -->
<g id="node6" class="node"><title>n005</title>
<polygon fill="none" stroke="black" points="54,-396 0,-396 0,-360 54,-360 54,-396"/>
<text text-anchor="middle" x="27" y="-374.3" font-family="Times New Roman,serif" font-size="14.00">int</text>
</g>
<!-- n004&#45;&#45;n005 -->
<g id="edge6" class="edge"><title>n004&#45;&#45;n005</title>
<path fill="none" stroke="black" d="M27,-431.697C27,-420.846 27,-406.917 27,-396.104"/>
</g>
<!-- n009 -->
<g id="node10" class="node"><title>n009</title>
<polygon fill="none" stroke="black" points="346,-396 292,-396 292,-360 346,-360 346,-396"/>
<text text-anchor="middle" x="319" y="-374.3" font-family="Times New Roman,serif" font-size="14.00">FOR</text>
</g>
<!-- n008&#45;&#45;n009 -->
<g id="edge10" class="edge"><title>n008&#45;&#45;n009</title>
<path fill="none" stroke="black" d="M319,-431.697C319,-420.846 319,-406.917 319,-396.104"/>
</g>
<!-- n0010 -->
<g id="node11" class="node"><title>n0010</title>
<polygon fill="none" stroke="black" points="243,-324 189,-324 189,-288 243,-288 243,-324"/>
<text text-anchor="middle" x="216" y="-302.3" font-family="Times New Roman,serif" font-size="14.00">for</text>
</g>
<!-- n009&#45;&#45;n0010 -->
<g id="edge11" class="edge"><title>n009&#45;&#45;n0010</title>
<path fill="none" stroke="black" d="M293.803,-359.876C277.842,-349.029 257.273,-335.05 241.293,-324.19"/>
</g>
<!-- n0011 -->
<g id="node12" class="node"><title>n0011</title>
<polygon fill="none" stroke="black" points="377,-324 261,-324 261,-288 377,-288 377,-324"/>
<text text-anchor="middle" x="319" y="-302.3" font-family="Times New Roman,serif" font-size="14.00">DECLARACION</text>
</g>
<!-- n009&#45;&#45;n0011 -->
<g id="edge12" class="edge"><title>n009&#45;&#45;n0011</title>
<path fill="none" stroke="black" d="M319,-359.697C319,-348.846 319,-334.917 319,-324.104"/>
</g>
<!-- n0021 -->
<g id="node22" class="node"><title>n0021</title>
<polygon fill="none" stroke="black" points="523.5,-324 428.5,-324 428.5,-288 523.5,-288 523.5,-324"/>
<text text-anchor="middle" x="476" y="-302.3" font-family="Times New Roman,serif" font-size="14.00">CONDICION</text>
</g>
<!-- n009&#45;&#45;n0021 -->
<g id="edge22" class="edge"><title>n009&#45;&#45;n0021</title>
<path fill="none" stroke="black" d="M346.347,-364.807C371.649,-353.526 409.51,-336.645 437.794,-324.034"/>
</g>
<!-- n0012 -->
<g id="node13" class="node"><title>n0012</title>
<polygon fill="none" stroke="black" points="358.5,-252 211.5,-252 211.5,-216 358.5,-216 358.5,-252"/>
<text text-anchor="middle" x="285" y="-230.3" font-family="Times New Roman,serif" font-size="14.00">DECLA_VARIABLES</text>
</g>
<!-- n0011&#45;&#45;n0012 -->
<g id="edge13" class="edge"><title>n0011&#45;&#45;n0012</title>
<path fill="none" stroke="black" d="M310.596,-287.697C305.325,-276.846 298.56,-262.917 293.308,-252.104"/>
</g>
<!-- n0013 -->
<g id="node14" class="node"><title>n0013</title>
<polygon fill="none" stroke="black" points="203,-180 149,-180 149,-144 203,-144 203,-180"/>
<text text-anchor="middle" x="176" y="-158.3" font-family="Times New Roman,serif" font-size="14.00">TIPO</text>
</g>
<!-- n0012&#45;&#45;n0013 -->
<g id="edge14" class="edge"><title>n0012&#45;&#45;n0013</title>
<path fill="none" stroke="black" d="M258.336,-215.876C241.445,-205.029 219.678,-191.05 202.767,-180.19"/>
</g>
<!-- n0015 -->
<g id="node16" class="node"><title>n0015</title>
<polygon fill="none" stroke="black" points="275,-180 221,-180 221,-144 275,-144 275,-180"/>
<text text-anchor="middle" x="248" y="-158.3" font-family="Times New Roman,serif" font-size="14.00">a</text>
</g>
<!-- n0012&#45;&#45;n0015 -->
<g id="edge16" class="edge"><title>n0012&#45;&#45;n0015</title>
<path fill="none" stroke="black" d="M275.854,-215.697C270.119,-204.846 262.756,-190.917 257.041,-180.104"/>
</g>
<!-- n0016 -->
<g id="node17" class="node"><title>n0016</title>
<polygon fill="none" stroke="black" points="352.5,-180 293.5,-180 293.5,-144 352.5,-144 352.5,-180"/>
<text text-anchor="middle" x="323" y="-158.3" font-family="Times New Roman,serif" font-size="14.00">ASIGN</text>
</g>
<!-- n0012&#45;&#45;n0016 -->
<g id="edge17" class="edge"><title>n0012&#45;&#45;n0016</title>
<path fill="none" stroke="black" d="M294.393,-215.697C300.283,-204.846 307.845,-190.917 313.715,-180.104"/>
</g>
<!-- n0020 -->
<g id="node21" class="node"><title>n0020</title>
<polygon fill="none" stroke="black" points="425,-180 371,-180 371,-144 425,-144 425,-180"/>
<text text-anchor="middle" x="398" y="-158.3" font-family="Times New Roman,serif" font-size="14.00">,</text>
</g>
<!-- n0012&#45;&#45;n0020 -->
<g id="edge21" class="edge"><title>n0012&#45;&#45;n0020</title>
<path fill="none" stroke="black" d="M312.643,-215.876C330.284,-204.948 353.057,-190.841 370.642,-179.947"/>
</g>
<!-- n0014 -->
<g id="node15" class="node"><title>n0014</title>
<polygon fill="none" stroke="black" points="203,-108 149,-108 149,-72 203,-72 203,-108"/>
<text text-anchor="middle" x="176" y="-86.3" font-family="Times New Roman,serif" font-size="14.00">int</text>
</g>
<!-- n0013&#45;&#45;n0014 -->
<g id="edge15" class="edge"><title>n0013&#45;&#45;n0014</title>
<path fill="none" stroke="black" d="M176,-143.697C176,-132.846 176,-118.917 176,-108.104"/>
</g>
<!-- n0017 -->
<g id="node18" class="node"><title>n0017</title>
<polygon fill="none" stroke="black" points="312,-108 258,-108 258,-72 312,-72 312,-108"/>
<text text-anchor="middle" x="285" y="-86.3" font-family="Times New Roman,serif" font-size="14.00">=</text>
</g>
<!-- n0016&#45;&#45;n0017 -->
<g id="edge18" class="edge"><title>n0016&#45;&#45;n0017</title>
<path fill="none" stroke="black" d="M313.607,-143.697C307.717,-132.846 300.155,-118.917 294.285,-108.104"/>
</g>
<!-- n0018 -->
<g id="node19" class="node"><title>n0018</title>
<polygon fill="none" stroke="black" points="424,-108 330,-108 330,-72 424,-72 424,-108"/>
<text text-anchor="middle" x="377" y="-86.3" font-family="Times New Roman,serif" font-size="14.00">EXPRESION</text>
</g>
<!-- n0016&#45;&#45;n0018 -->
<g id="edge19" class="edge"><title>n0016&#45;&#45;n0018</title>
<path fill="none" stroke="black" d="M336.348,-143.697C344.719,-132.846 355.464,-118.917 363.805,-108.104"/>
</g>
<!-- n0019 -->
<g id="node20" class="node"><title>n0019</title>
<polygon fill="none" stroke="black" points="404,-36 350,-36 350,-0 404,-0 404,-36"/>
<text text-anchor="middle" x="377" y="-14.3" font-family="Times New Roman,serif" font-size="14.00">3</text>
</g>
<!-- n0018&#45;&#45;n0019 -->
<g id="edge20" class="edge"><title>n0018&#45;&#45;n0019</title>
<path fill="none" stroke="black" d="M377,-71.6966C377,-60.8463 377,-46.9167 377,-36.1043"/>
</g>
<!-- n0022 -->
<g id="node23" class="node"><title>n0022</title>
<polygon fill="none" stroke="black" points="431,-252 377,-252 377,-216 431,-216 431,-252"/>
<text text-anchor="middle" x="404" y="-230.3" font-family="Times New Roman,serif" font-size="14.00">a</text>
</g>
<!-- n0021&#45;&#45;n0022 -->
<g id="edge23" class="edge"><title>n0021&#45;&#45;n0022</title>
<path fill="none" stroke="black" d="M458.202,-287.697C447.042,-276.846 432.714,-262.917 421.593,-252.104"/>
</g>
<!-- n0023 -->
<g id="node24" class="node"><title>n0023</title>
<polygon fill="none" stroke="black" points="503,-252 449,-252 449,-216 503,-216 503,-252"/>
<text text-anchor="middle" x="476" y="-230.3" font-family="Times New Roman,serif" font-size="14.00">&lt;</text>
</g>
<!-- n0021&#45;&#45;n0023 -->
<g id="edge24" class="edge"><title>n0021&#45;&#45;n0023</title>
<path fill="none" stroke="black" d="M476,-287.697C476,-276.846 476,-262.917 476,-252.104"/>
</g>
<!-- n0024 -->
<g id="node25" class="node"><title>n0024</title>
<polygon fill="none" stroke="black" points="575,-252 521,-252 521,-216 575,-216 575,-252"/>
<text text-anchor="middle" x="548" y="-230.3" font-family="Times New Roman,serif" font-size="14.00">5</text>
</g>
<!-- n0021&#45;&#45;n0024 -->
<g id="edge25" class="edge"><title>n0021&#45;&#45;n0024</title>
<path fill="none" stroke="black" d="M493.798,-287.697C504.958,-276.846 519.286,-262.917 530.407,-252.104"/>
</g>
<!-- n0025 -->
<g id="node26" class="node"><title>n0025</title>
<polygon fill="none" stroke="black" points="804.5,-252 593.5,-252 593.5,-216 804.5,-216 804.5,-252"/>
<text text-anchor="middle" x="699" y="-230.3" font-family="Times New Roman,serif" font-size="14.00">INCREMENTO_DECREMENTO</text>
</g>
<!-- n0021&#45;&#45;n0025 -->
<g id="edge26" class="edge"><title>n0021&#45;&#45;n0025</title>
<path fill="none" stroke="black" d="M523.566,-290.069C558.998,-278.947 607.441,-263.741 644.445,-252.125"/>
</g>
<!-- n0026 -->
<g id="node27" class="node"><title>n0026</title>
<polygon fill="none" stroke="black" points="804.5,-180 593.5,-180 593.5,-144 804.5,-144 804.5,-180"/>
<text text-anchor="middle" x="699" y="-158.3" font-family="Times New Roman,serif" font-size="14.00">INCREMENTO_DECREMENTO</text>
</g>
<!-- n0025&#45;&#45;n0026 -->
<g id="edge27" class="edge"><title>n0025&#45;&#45;n0026</title>
<path fill="none" stroke="black" d="M699,-215.697C699,-204.846 699,-190.917 699,-180.104"/>
</g>
<!-- n0027 -->
<g id="node28" class="node"><title>n0027</title>
<polygon fill="none" stroke="black" points="690,-108 636,-108 636,-72 690,-72 690,-108"/>
<text text-anchor="middle" x="663" y="-86.3" font-family="Times New Roman,serif" font-size="14.00">a</text>
</g>
<!-- n0026&#45;&#45;n0027 -->
<g id="edge28" class="edge"><title>n0026&#45;&#45;n0027</title>
<path fill="none" stroke="black" d="M690.101,-143.697C684.521,-132.846 677.357,-118.917 671.797,-108.104"/>
</g>
<!-- n0028 -->
<g id="node29" class="node"><title>n0028</title>
<polygon fill="none" stroke="black" points="762,-108 708,-108 708,-72 762,-72 762,-108"/>
<text text-anchor="middle" x="735" y="-86.3" font-family="Times New Roman,serif" font-size="14.00">++</text>
</g>
<!-- n0026&#45;&#45;n0028 -->
<g id="edge29" class="edge"><title>n0026&#45;&#45;n0028</title>
<path fill="none" stroke="black" d="M707.899,-143.697C713.479,-132.846 720.643,-118.917 726.203,-108.104"/>
</g>
</g>
</svg>
