<?xml version="1.0" encoding="UTF-8" standalone="no"?>
<!DOCTYPE svg PUBLIC "-//W3C//DTD SVG 1.1//EN"
 "http://www.w3.org/Graphics/SVG/1.1/DTD/svg11.dtd">
<!-- Generated by graphviz version 2.38.0 (20140413.2041)
 -->
<!-- Pages: 1 -->
<svg width="632pt" height="620pt"
 viewBox="0.00 0.00 632.00 620.00" xmlns="http://www.w3.org/2000/svg" xmlns:xlink="http://www.w3.org/1999/xlink">
<g id="graph0" class="graph" transform="scale(1 1) rotate(0) translate(4 616)">
<polygon fill="white" stroke="none" points="-4,4 -4,-616 628,-616 628,4 -4,4"/>
<!-- n000 -->
<g id="node1" class="node"><title>n000</title>
<polygon fill="none" stroke="black" points="248,-612 194,-612 194,-576 248,-576 248,-612"/>
<text text-anchor="middle" x="221" y="-590.3" font-family="Times New Roman,serif" font-size="14.00">S</text>
</g>
<!-- n000&#45;&#45;n000 -->
<g id="edge1" class="edge"><title>n000&#45;&#45;n000</title>
<path fill="none" stroke="black" d="M248.241,-607.487C258.024,-607.777 266,-603.281 266,-594 266,-584.719 258.024,-580.223 248.241,-580.513"/>
</g>
<!-- n001 -->
<g id="node2" class="node"><title>n001</title>
<polygon fill="none" stroke="black" points="248,-540 194,-540 194,-504 248,-504 248,-540"/>
<text text-anchor="middle" x="221" y="-518.3" font-family="Times New Roman,serif" font-size="14.00">A</text>
</g>
<!-- n000&#45;&#45;n001 -->
<g id="edge2" class="edge"><title>n000&#45;&#45;n001</title>
<path fill="none" stroke="black" d="M221,-575.697C221,-564.846 221,-550.917 221,-540.104"/>
</g>
<!-- n002 -->
<g id="node3" class="node"><title>n002</title>
<polygon fill="none" stroke="black" points="323.5,-468 118.5,-468 118.5,-432 323.5,-432 323.5,-468"/>
<text text-anchor="middle" x="221" y="-446.3" font-family="Times New Roman,serif" font-size="14.00">INSTRUCCIONES GLOBALES</text>
</g>
<!-- n001&#45;&#45;n002 -->
<g id="edge3" class="edge"><title>n001&#45;&#45;n002</title>
<path fill="none" stroke="black" d="M221,-503.697C221,-492.846 221,-478.917 221,-468.104"/>
</g>
<!-- n003 -->
<g id="node4" class="node"><title>n003</title>
<polygon fill="none" stroke="black" points="295.5,-396 146.5,-396 146.5,-360 295.5,-360 295.5,-396"/>
<text text-anchor="middle" x="221" y="-374.3" font-family="Times New Roman,serif" font-size="14.00">DECLA_FUNCIONES</text>
</g>
<!-- n002&#45;&#45;n003 -->
<g id="edge4" class="edge"><title>n002&#45;&#45;n003</title>
<path fill="none" stroke="black" d="M221,-431.697C221,-420.846 221,-406.917 221,-396.104"/>
</g>
<!-- n004 -->
<g id="node5" class="node"><title>n004</title>
<polygon fill="none" stroke="black" points="54,-324 0,-324 0,-288 54,-288 54,-324"/>
<text text-anchor="middle" x="27" y="-302.3" font-family="Times New Roman,serif" font-size="14.00">TIPO</text>
</g>
<!-- n003&#45;&#45;n004 -->
<g id="edge5" class="edge"><title>n003&#45;&#45;n004</title>
<path fill="none" stroke="black" d="M164.846,-359.936C134.395,-350.241 96.2851,-337.388 63,-324 60.1785,-322.865 57.2634,-321.618 54.3702,-320.331"/>
</g>
<!-- n006 -->
<g id="node7" class="node"><title>n006</title>
<polygon fill="none" stroke="black" points="126,-324 72,-324 72,-288 126,-288 126,-324"/>
<text text-anchor="middle" x="99" y="-302.3" font-family="Times New Roman,serif" font-size="14.00">main</text>
</g>
<!-- n003&#45;&#45;n006 -->
<g id="edge7" class="edge"><title>n003&#45;&#45;n006</title>
<path fill="none" stroke="black" d="M191.155,-359.876C171.262,-348.462 145.326,-333.581 126.039,-322.514"/>
</g>
<!-- n007 -->
<g id="node8" class="node"><title>n007</title>
<polygon fill="none" stroke="black" points="198,-324 144,-324 144,-288 198,-288 198,-324"/>
<text text-anchor="middle" x="171" y="-302.3" font-family="Times New Roman,serif" font-size="14.00">(</text>
</g>
<!-- n003&#45;&#45;n007 -->
<g id="edge8" class="edge"><title>n003&#45;&#45;n007</title>
<path fill="none" stroke="black" d="M208.64,-359.697C200.89,-348.846 190.941,-334.917 183.217,-324.104"/>
</g>
<!-- n008 -->
<g id="node9" class="node"><title>n008</title>
<polygon fill="none" stroke="black" points="328,-324 216,-324 216,-288 328,-288 328,-324"/>
<text text-anchor="middle" x="272" y="-302.3" font-family="Times New Roman,serif" font-size="14.00">PARAMETROS</text>
</g>
<!-- n003&#45;&#45;n008 -->
<g id="edge9" class="edge"><title>n003&#45;&#45;n008</title>
<path fill="none" stroke="black" d="M233.607,-359.697C241.512,-348.846 251.661,-334.917 259.538,-324.104"/>
</g>
<!-- n009 -->
<g id="node10" class="node"><title>n009</title>
<polygon fill="none" stroke="black" points="551.5,-324 346.5,-324 346.5,-288 551.5,-288 551.5,-324"/>
<text text-anchor="middle" x="449" y="-302.3" font-family="Times New Roman,serif" font-size="14.00">INSTRUCCIONES_INTERNAS</text>
</g>
<!-- n003&#45;&#45;n009 -->
<g id="edge10" class="edge"><title>n003&#45;&#45;n009</title>
<path fill="none" stroke="black" d="M276.484,-359.966C311.941,-349.079 357.761,-335.012 393.268,-324.111"/>
</g>
<!-- n0020 -->
<g id="node20" class="node"><title>n0020</title>
<polygon fill="none" stroke="black" points="624,-324 570,-324 570,-288 624,-288 624,-324"/>
<text text-anchor="middle" x="597" y="-302.3" font-family="Times New Roman,serif" font-size="14.00">)</text>
</g>
<!-- n003&#45;&#45;n0020 -->
<g id="edge20" class="edge"><title>n003&#45;&#45;n0020</title>
<path fill="none" stroke="black" d="M295.713,-371.274C365.29,-364.553 471.315,-350.744 560,-324 563.249,-323.02 566.58,-321.81 569.849,-320.491"/>
</g>
<!-- n005 -->
<g id="node6" class="node"><title>n005</title>
<polygon fill="none" stroke="black" points="54,-252 0,-252 0,-216 54,-216 54,-252"/>
<text text-anchor="middle" x="27" y="-230.3" font-family="Times New Roman,serif" font-size="14.00">int</text>
</g>
<!-- n004&#45;&#45;n005 -->
<g id="edge6" class="edge"><title>n004&#45;&#45;n005</title>
<path fill="none" stroke="black" d="M27,-287.697C27,-276.846 27,-262.917 27,-252.104"/>
</g>
<!-- n0010 -->
<g id="node11" class="node"><title>n0010</title>
<polygon fill="none" stroke="black" points="436.5,-252 289.5,-252 289.5,-216 436.5,-216 436.5,-252"/>
<text text-anchor="middle" x="363" y="-230.3" font-family="Times New Roman,serif" font-size="14.00">DECLA_VARIABLES</text>
</g>
<!-- n009&#45;&#45;n0010 -->
<g id="edge11" class="edge"><title>n009&#45;&#45;n0010</title>
<path fill="none" stroke="black" d="M427.742,-287.697C414.411,-276.846 397.298,-262.917 384.014,-252.104"/>
</g>
<!-- n0014 -->
<g id="node15" class="node"><title>n0014</title>
<polygon fill="none" stroke="black" points="613.5,-252 454.5,-252 454.5,-216 613.5,-216 613.5,-252"/>
<text text-anchor="middle" x="534" y="-230.3" font-family="Times New Roman,serif" font-size="14.00">ASIGNATION_ARRAY</text>
</g>
<!-- n009&#45;&#45;n0014 -->
<g id="edge15" class="edge"><title>n009&#45;&#45;n0014</title>
<path fill="none" stroke="black" d="M470.011,-287.697C483.187,-276.846 500.101,-262.917 513.23,-252.104"/>
</g>
<!-- n0011 -->
<g id="node12" class="node"><title>n0011</title>
<polygon fill="none" stroke="black" points="354,-180 300,-180 300,-144 354,-144 354,-180"/>
<text text-anchor="middle" x="327" y="-158.3" font-family="Times New Roman,serif" font-size="14.00">TIPO</text>
</g>
<!-- n0010&#45;&#45;n0011 -->
<g id="edge12" class="edge"><title>n0010&#45;&#45;n0011</title>
<path fill="none" stroke="black" d="M354.101,-215.697C348.521,-204.846 341.357,-190.917 335.797,-180.104"/>
</g>
<!-- n0013 -->
<g id="node14" class="node"><title>n0013</title>
<polygon fill="none" stroke="black" points="426,-180 372,-180 372,-144 426,-144 426,-180"/>
<text text-anchor="middle" x="399" y="-158.3" font-family="Times New Roman,serif" font-size="14.00">,</text>
</g>
<!-- n0010&#45;&#45;n0013 -->
<g id="edge14" class="edge"><title>n0010&#45;&#45;n0013</title>
<path fill="none" stroke="black" d="M371.899,-215.697C377.479,-204.846 384.643,-190.917 390.203,-180.104"/>
</g>
<!-- n0012 -->
<g id="node13" class="node"><title>n0012</title>
<polygon fill="none" stroke="black" points="354,-108 300,-108 300,-72 354,-72 354,-108"/>
<text text-anchor="middle" x="327" y="-86.3" font-family="Times New Roman,serif" font-size="14.00">int</text>
</g>
<!-- n0011&#45;&#45;n0012 -->
<g id="edge13" class="edge"><title>n0011&#45;&#45;n0012</title>
<path fill="none" stroke="black" d="M327,-143.697C327,-132.846 327,-118.917 327,-108.104"/>
</g>
<!-- n0015 -->
<g id="node16" class="node"><title>n0015</title>
<polygon fill="none" stroke="black" points="499,-180 445,-180 445,-144 499,-144 499,-180"/>
<text text-anchor="middle" x="472" y="-158.3" font-family="Times New Roman,serif" font-size="14.00">a</text>
</g>
<!-- n0014&#45;&#45;n0015 -->
<g id="edge16" class="edge"><title>n0014&#45;&#45;n0015</title>
<path fill="none" stroke="black" d="M518.674,-215.697C509.064,-204.846 496.726,-190.917 487.15,-180.104"/>
</g>
<!-- n0016 -->
<g id="node17" class="node"><title>n0016</title>
<polygon fill="none" stroke="black" points="620.5,-180 517.5,-180 517.5,-144 620.5,-144 620.5,-180"/>
<text text-anchor="middle" x="569" y="-158.3" font-family="Times New Roman,serif" font-size="14.00">[EXPRESION]</text>
</g>
<!-- n0014&#45;&#45;n0016 -->
<g id="edge17" class="edge"><title>n0014&#45;&#45;n0016</title>
<path fill="none" stroke="black" d="M542.652,-215.697C548.077,-204.846 555.042,-190.917 560.448,-180.104"/>
</g>
<!-- n0017 -->
<g id="node18" class="node"><title>n0017</title>
<polygon fill="none" stroke="black" points="616,-108 522,-108 522,-72 616,-72 616,-108"/>
<text text-anchor="middle" x="569" y="-86.3" font-family="Times New Roman,serif" font-size="14.00">EXPRESION</text>
</g>
<!-- n0016&#45;&#45;n0017 -->
<g id="edge18" class="edge"><title>n0016&#45;&#45;n0017</title>
<path fill="none" stroke="black" d="M569,-143.697C569,-132.846 569,-118.917 569,-108.104"/>
</g>
<!-- n0018 -->
<g id="node19" class="node"><title>n0018</title>
<polygon fill="none" stroke="black" points="596,-36 542,-36 542,-0 596,-0 596,-36"/>
<text text-anchor="middle" x="569" y="-14.3" font-family="Times New Roman,serif" font-size="14.00">2</text>
</g>
<!-- n0017&#45;&#45;n0018 -->
<g id="edge19" class="edge"><title>n0017&#45;&#45;n0018</title>
<path fill="none" stroke="black" d="M569,-71.6966C569,-60.8463 569,-46.9167 569,-36.1043"/>
</g>
</g>
</svg>
