<?xml version="1.0" encoding="UTF-8" standalone="no"?>
<!DOCTYPE svg PUBLIC "-//W3C//DTD SVG 1.1//EN"
 "http://www.w3.org/Graphics/SVG/1.1/DTD/svg11.dtd">
<!-- Generated by graphviz version 2.38.0 (20140413.2041)
 -->
<!-- Pages: 1 -->
<svg width="1022pt" height="476pt"
 viewBox="0.00 0.00 1022.00 476.00" xmlns="http://www.w3.org/2000/svg" xmlns:xlink="http://www.w3.org/1999/xlink">
<g id="graph0" class="graph" transform="scale(1 1) rotate(0) translate(4 472)">
<polygon fill="white" stroke="none" points="-4,4 -4,-472 1018,-472 1018,4 -4,4"/>
<!-- n0017 -->
<g id="node1" class="node"><title>n0017</title>
<polygon fill="none" stroke="black" points="578,-468 524,-468 524,-432 578,-432 578,-468"/>
<text text-anchor="middle" x="551" y="-446.3" font-family="Times New Roman,serif" font-size="14.00">S</text>
</g>
<!-- n0017&#45;&#45;n0017 -->
<g id="edge1" class="edge"><title>n0017&#45;&#45;n0017</title>
<path fill="none" stroke="black" d="M578.241,-463.487C588.024,-463.777 596,-459.281 596,-450 596,-440.719 588.024,-436.223 578.241,-436.513"/>
</g>
<!-- n0018 -->
<g id="node2" class="node"><title>n0018</title>
<polygon fill="none" stroke="black" points="578,-396 524,-396 524,-360 578,-360 578,-396"/>
<text text-anchor="middle" x="551" y="-374.3" font-family="Times New Roman,serif" font-size="14.00">A</text>
</g>
<!-- n0017&#45;&#45;n0018 -->
<g id="edge2" class="edge"><title>n0017&#45;&#45;n0018</title>
<path fill="none" stroke="black" d="M551,-431.697C551,-420.846 551,-406.917 551,-396.104"/>
</g>
<!-- n0019 -->
<g id="node3" class="node"><title>n0019</title>
<polygon fill="none" stroke="black" points="510.5,-324 305.5,-324 305.5,-288 510.5,-288 510.5,-324"/>
<text text-anchor="middle" x="408" y="-302.3" font-family="Times New Roman,serif" font-size="14.00">INSTRUCCIONES GLOBALES</text>
</g>
<!-- n0018&#45;&#45;n0019 -->
<g id="edge3" class="edge"><title>n0018&#45;&#45;n0019</title>
<path fill="none" stroke="black" d="M523.766,-363.669C500.752,-352.403 467.651,-336.2 442.733,-324.002"/>
</g>
<!-- n0035 -->
<g id="node19" class="node"><title>n0035</title>
<polygon fill="none" stroke="black" points="797.5,-324 592.5,-324 592.5,-288 797.5,-288 797.5,-324"/>
<text text-anchor="middle" x="695" y="-302.3" font-family="Times New Roman,serif" font-size="14.00">INSTRUCCIONES GLOBALES</text>
</g>
<!-- n0018&#45;&#45;n0035 -->
<g id="edge19" class="edge"><title>n0018&#45;&#45;n0035</title>
<path fill="none" stroke="black" d="M578.085,-363.834C601.223,-352.586 634.665,-336.33 659.86,-324.082"/>
</g>
<!-- n0020 -->
<g id="node4" class="node"><title>n0020</title>
<polygon fill="none" stroke="black" points="354.5,-252 207.5,-252 207.5,-216 354.5,-216 354.5,-252"/>
<text text-anchor="middle" x="281" y="-230.3" font-family="Times New Roman,serif" font-size="14.00">DECLA_VARIABLES</text>
</g>
<!-- n0019&#45;&#45;n0020 -->
<g id="edge4" class="edge"><title>n0019&#45;&#45;n0020</title>
<path fill="none" stroke="black" d="M376.932,-287.876C357.252,-277.029 331.89,-263.05 312.187,-252.19"/>
</g>
<!-- n0021 -->
<g id="node5" class="node"><title>n0021</title>
<polygon fill="none" stroke="black" points="54,-180 0,-180 0,-144 54,-144 54,-180"/>
<text text-anchor="middle" x="27" y="-158.3" font-family="Times New Roman,serif" font-size="14.00">TIPO</text>
</g>
<!-- n0020&#45;&#45;n0021 -->
<g id="edge5" class="edge"><title>n0020&#45;&#45;n0021</title>
<path fill="none" stroke="black" d="M207.253,-218.964C164.504,-209.868 110.004,-196.618 63,-180 60.1327,-178.986 57.1876,-177.819 54.2761,-176.58"/>
</g>
<!-- n0023 -->
<g id="node7" class="node"><title>n0023</title>
<polygon fill="none" stroke="black" points="126,-180 72,-180 72,-144 126,-144 126,-180"/>
<text text-anchor="middle" x="99" y="-158.3" font-family="Times New Roman,serif" font-size="14.00">a</text>
</g>
<!-- n0020&#45;&#45;n0023 -->
<g id="edge7" class="edge"><title>n0020&#45;&#45;n0023</title>
<path fill="none" stroke="black" d="M230.553,-215.986C202.223,-206.108 166.364,-193.065 135,-180 132.065,-178.777 129.022,-177.445 126.006,-176.082"/>
</g>
<!-- n0024 -->
<g id="node8" class="node"><title>n0024</title>
<polygon fill="none" stroke="black" points="203.5,-180 144.5,-180 144.5,-144 203.5,-144 203.5,-180"/>
<text text-anchor="middle" x="174" y="-158.3" font-family="Times New Roman,serif" font-size="14.00">ASIGN</text>
</g>
<!-- n0020&#45;&#45;n0024 -->
<g id="edge8" class="edge"><title>n0020&#45;&#45;n0024</title>
<path fill="none" stroke="black" d="M254.825,-215.876C238.244,-205.029 216.876,-191.05 200.276,-180.19"/>
</g>
<!-- n0028 -->
<g id="node12" class="node"><title>n0028</title>
<polygon fill="none" stroke="black" points="276,-180 222,-180 222,-144 276,-144 276,-180"/>
<text text-anchor="middle" x="249" y="-158.3" font-family="Times New Roman,serif" font-size="14.00">,</text>
</g>
<!-- n0020&#45;&#45;n0028 -->
<g id="edge12" class="edge"><title>n0020&#45;&#45;n0028</title>
<path fill="none" stroke="black" d="M273.09,-215.697C268.13,-204.846 261.762,-190.917 256.819,-180.104"/>
</g>
<!-- n0029 -->
<g id="node13" class="node"><title>n0029</title>
<polygon fill="none" stroke="black" points="348,-180 294,-180 294,-144 348,-144 348,-180"/>
<text text-anchor="middle" x="321" y="-158.3" font-family="Times New Roman,serif" font-size="14.00">b</text>
</g>
<!-- n0020&#45;&#45;n0029 -->
<g id="edge13" class="edge"><title>n0020&#45;&#45;n0029</title>
<path fill="none" stroke="black" d="M290.888,-215.697C297.088,-204.846 305.048,-190.917 311.226,-180.104"/>
</g>
<!-- n0030 -->
<g id="node14" class="node"><title>n0030</title>
<polygon fill="none" stroke="black" points="425.5,-180 366.5,-180 366.5,-144 425.5,-144 425.5,-180"/>
<text text-anchor="middle" x="396" y="-158.3" font-family="Times New Roman,serif" font-size="14.00">ASIGN</text>
</g>
<!-- n0020&#45;&#45;n0030 -->
<g id="edge14" class="edge"><title>n0020&#45;&#45;n0030</title>
<path fill="none" stroke="black" d="M309.132,-215.876C326.953,-205.029 349.918,-191.05 367.76,-180.19"/>
</g>
<!-- n0034 -->
<g id="node18" class="node"><title>n0034</title>
<polygon fill="none" stroke="black" points="498,-180 444,-180 444,-144 498,-144 498,-180"/>
<text text-anchor="middle" x="471" y="-158.3" font-family="Times New Roman,serif" font-size="14.00">,</text>
</g>
<!-- n0020&#45;&#45;n0034 -->
<g id="edge18" class="edge"><title>n0020&#45;&#45;n0034</title>
<path fill="none" stroke="black" d="M334.221,-215.978C363.855,-206.148 401.265,-193.154 434,-180 437.149,-178.735 440.417,-177.346 443.65,-175.926"/>
</g>
<!-- n0022 -->
<g id="node6" class="node"><title>n0022</title>
<polygon fill="none" stroke="black" points="54,-108 0,-108 0,-72 54,-72 54,-108"/>
<text text-anchor="middle" x="27" y="-86.3" font-family="Times New Roman,serif" font-size="14.00">int</text>
</g>
<!-- n0021&#45;&#45;n0022 -->
<g id="edge6" class="edge"><title>n0021&#45;&#45;n0022</title>
<path fill="none" stroke="black" d="M27,-143.697C27,-132.846 27,-118.917 27,-108.104"/>
</g>
<!-- n0025 -->
<g id="node9" class="node"><title>n0025</title>
<polygon fill="none" stroke="black" points="164,-108 110,-108 110,-72 164,-72 164,-108"/>
<text text-anchor="middle" x="137" y="-86.3" font-family="Times New Roman,serif" font-size="14.00">=</text>
</g>
<!-- n0024&#45;&#45;n0025 -->
<g id="edge9" class="edge"><title>n0024&#45;&#45;n0025</title>
<path fill="none" stroke="black" d="M164.854,-143.697C159.119,-132.846 151.756,-118.917 146.041,-108.104"/>
</g>
<!-- n0026 -->
<g id="node10" class="node"><title>n0026</title>
<polygon fill="none" stroke="black" points="276,-108 182,-108 182,-72 276,-72 276,-108"/>
<text text-anchor="middle" x="229" y="-86.3" font-family="Times New Roman,serif" font-size="14.00">EXPRESION</text>
</g>
<!-- n0024&#45;&#45;n0026 -->
<g id="edge10" class="edge"><title>n0024&#45;&#45;n0026</title>
<path fill="none" stroke="black" d="M187.596,-143.697C196.121,-132.846 207.065,-118.917 215.561,-108.104"/>
</g>
<!-- n0027 -->
<g id="node11" class="node"><title>n0027</title>
<polygon fill="none" stroke="black" points="256,-36 202,-36 202,-0 256,-0 256,-36"/>
<text text-anchor="middle" x="229" y="-14.3" font-family="Times New Roman,serif" font-size="14.00">3</text>
</g>
<!-- n0026&#45;&#45;n0027 -->
<g id="edge11" class="edge"><title>n0026&#45;&#45;n0027</title>
<path fill="none" stroke="black" d="M229,-71.6966C229,-60.8463 229,-46.9167 229,-36.1043"/>
</g>
<!-- n0031 -->
<g id="node15" class="node"><title>n0031</title>
<polygon fill="none" stroke="black" points="386,-108 332,-108 332,-72 386,-72 386,-108"/>
<text text-anchor="middle" x="359" y="-86.3" font-family="Times New Roman,serif" font-size="14.00">=</text>
</g>
<!-- n0030&#45;&#45;n0031 -->
<g id="edge15" class="edge"><title>n0030&#45;&#45;n0031</title>
<path fill="none" stroke="black" d="M386.854,-143.697C381.119,-132.846 373.756,-118.917 368.041,-108.104"/>
</g>
<!-- n0032 -->
<g id="node16" class="node"><title>n0032</title>
<polygon fill="none" stroke="black" points="498,-108 404,-108 404,-72 498,-72 498,-108"/>
<text text-anchor="middle" x="451" y="-86.3" font-family="Times New Roman,serif" font-size="14.00">EXPRESION</text>
</g>
<!-- n0030&#45;&#45;n0032 -->
<g id="edge16" class="edge"><title>n0030&#45;&#45;n0032</title>
<path fill="none" stroke="black" d="M409.596,-143.697C418.121,-132.846 429.065,-118.917 437.561,-108.104"/>
</g>
<!-- n0033 -->
<g id="node17" class="node"><title>n0033</title>
<polygon fill="none" stroke="black" points="478,-36 424,-36 424,-0 478,-0 478,-36"/>
<text text-anchor="middle" x="451" y="-14.3" font-family="Times New Roman,serif" font-size="14.00">2</text>
</g>
<!-- n0032&#45;&#45;n0033 -->
<g id="edge17" class="edge"><title>n0032&#45;&#45;n0033</title>
<path fill="none" stroke="black" d="M451,-71.6966C451,-60.8463 451,-46.9167 451,-36.1043"/>
</g>
<!-- n0036 -->
<g id="node20" class="node"><title>n0036</title>
<polygon fill="none" stroke="black" points="800.5,-252 653.5,-252 653.5,-216 800.5,-216 800.5,-252"/>
<text text-anchor="middle" x="727" y="-230.3" font-family="Times New Roman,serif" font-size="14.00">DECLA_VARIABLES</text>
</g>
<!-- n0035&#45;&#45;n0036 -->
<g id="edge20" class="edge"><title>n0035&#45;&#45;n0036</title>
<path fill="none" stroke="black" d="M702.91,-287.697C707.87,-276.846 714.238,-262.917 719.181,-252.104"/>
</g>
<!-- n0037 -->
<g id="node21" class="node"><title>n0037</title>
<polygon fill="none" stroke="black" points="570,-180 516,-180 516,-144 570,-144 570,-180"/>
<text text-anchor="middle" x="543" y="-158.3" font-family="Times New Roman,serif" font-size="14.00">TIPO</text>
</g>
<!-- n0036&#45;&#45;n0037 -->
<g id="edge21" class="edge"><title>n0036&#45;&#45;n0037</title>
<path fill="none" stroke="black" d="M675.504,-215.938C646.834,-206.096 610.647,-193.102 579,-180 576.062,-178.784 573.018,-177.456 570,-176.095"/>
</g>
<!-- n0039 -->
<g id="node23" class="node"><title>n0039</title>
<polygon fill="none" stroke="black" points="642,-180 588,-180 588,-144 642,-144 642,-180"/>
<text text-anchor="middle" x="615" y="-158.3" font-family="Times New Roman,serif" font-size="14.00">a</text>
</g>
<!-- n0036&#45;&#45;n0039 -->
<g id="edge23" class="edge"><title>n0036&#45;&#45;n0039</title>
<path fill="none" stroke="black" d="M699.602,-215.876C682.116,-204.948 659.546,-190.841 642.115,-179.947"/>
</g>
<!-- n0040 -->
<g id="node24" class="node"><title>n0040</title>
<polygon fill="none" stroke="black" points="719.5,-180 660.5,-180 660.5,-144 719.5,-144 719.5,-180"/>
<text text-anchor="middle" x="690" y="-158.3" font-family="Times New Roman,serif" font-size="14.00">ASIGN</text>
</g>
<!-- n0036&#45;&#45;n0040 -->
<g id="edge24" class="edge"><title>n0036&#45;&#45;n0040</title>
<path fill="none" stroke="black" d="M717.854,-215.697C712.119,-204.846 704.756,-190.917 699.041,-180.104"/>
</g>
<!-- n0044 -->
<g id="node28" class="node"><title>n0044</title>
<polygon fill="none" stroke="black" points="792,-180 738,-180 738,-144 792,-144 792,-180"/>
<text text-anchor="middle" x="765" y="-158.3" font-family="Times New Roman,serif" font-size="14.00">,</text>
</g>
<!-- n0036&#45;&#45;n0044 -->
<g id="edge28" class="edge"><title>n0036&#45;&#45;n0044</title>
<path fill="none" stroke="black" d="M736.393,-215.697C742.283,-204.846 749.845,-190.917 755.715,-180.104"/>
</g>
<!-- n0045 -->
<g id="node29" class="node"><title>n0045</title>
<polygon fill="none" stroke="black" points="864,-180 810,-180 810,-144 864,-144 864,-180"/>
<text text-anchor="middle" x="837" y="-158.3" font-family="Times New Roman,serif" font-size="14.00">b</text>
</g>
<!-- n0036&#45;&#45;n0045 -->
<g id="edge29" class="edge"><title>n0036&#45;&#45;n0045</title>
<path fill="none" stroke="black" d="M753.909,-215.876C770.955,-205.029 792.922,-191.05 809.988,-180.19"/>
</g>
<!-- n0046 -->
<g id="node30" class="node"><title>n0046</title>
<polygon fill="none" stroke="black" points="941.5,-180 882.5,-180 882.5,-144 941.5,-144 941.5,-180"/>
<text text-anchor="middle" x="912" y="-158.3" font-family="Times New Roman,serif" font-size="14.00">ASIGN</text>
</g>
<!-- n0036&#45;&#45;n0046 -->
<g id="edge30" class="edge"><title>n0036&#45;&#45;n0046</title>
<path fill="none" stroke="black" d="M776.29,-215.975C804.727,-205.938 841.067,-192.741 873,-180 876.018,-178.796 879.151,-177.503 882.27,-176.188"/>
</g>
<!-- n0050 -->
<g id="node34" class="node"><title>n0050</title>
<polygon fill="none" stroke="black" points="1014,-180 960,-180 960,-144 1014,-144 1014,-180"/>
<text text-anchor="middle" x="987" y="-158.3" font-family="Times New Roman,serif" font-size="14.00">,</text>
</g>
<!-- n0036&#45;&#45;n0050 -->
<g id="edge34" class="edge"><title>n0036&#45;&#45;n0050</title>
<path fill="none" stroke="black" d="M800.598,-219.323C844.57,-210.214 901.187,-196.83 950,-180 953.208,-178.894 956.514,-177.605 959.768,-176.241"/>
</g>
<!-- n0038 -->
<g id="node22" class="node"><title>n0038</title>
<polygon fill="none" stroke="black" points="570,-108 516,-108 516,-72 570,-72 570,-108"/>
<text text-anchor="middle" x="543" y="-86.3" font-family="Times New Roman,serif" font-size="14.00">int</text>
</g>
<!-- n0037&#45;&#45;n0038 -->
<g id="edge22" class="edge"><title>n0037&#45;&#45;n0038</title>
<path fill="none" stroke="black" d="M543,-143.697C543,-132.846 543,-118.917 543,-108.104"/>
</g>
<!-- n0041 -->
<g id="node25" class="node"><title>n0041</title>
<polygon fill="none" stroke="black" points="685,-108 631,-108 631,-72 685,-72 685,-108"/>
<text text-anchor="middle" x="658" y="-86.3" font-family="Times New Roman,serif" font-size="14.00">=</text>
</g>
<!-- n0040&#45;&#45;n0041 -->
<g id="edge25" class="edge"><title>n0040&#45;&#45;n0041</title>
<path fill="none" stroke="black" d="M682.09,-143.697C677.13,-132.846 670.762,-118.917 665.819,-108.104"/>
</g>
<!-- n0042 -->
<g id="node26" class="node"><title>n0042</title>
<polygon fill="none" stroke="black" points="797,-108 703,-108 703,-72 797,-72 797,-108"/>
<text text-anchor="middle" x="750" y="-86.3" font-family="Times New Roman,serif" font-size="14.00">EXPRESION</text>
</g>
<!-- n0040&#45;&#45;n0042 -->
<g id="edge26" class="edge"><title>n0040&#45;&#45;n0042</title>
<path fill="none" stroke="black" d="M704.831,-143.697C714.132,-132.846 726.071,-118.917 735.339,-108.104"/>
</g>
<!-- n0043 -->
<g id="node27" class="node"><title>n0043</title>
<polygon fill="none" stroke="black" points="777,-36 723,-36 723,-0 777,-0 777,-36"/>
<text text-anchor="middle" x="750" y="-14.3" font-family="Times New Roman,serif" font-size="14.00">3</text>
</g>
<!-- n0042&#45;&#45;n0043 -->
<g id="edge27" class="edge"><title>n0042&#45;&#45;n0043</title>
<path fill="none" stroke="black" d="M750,-71.6966C750,-60.8463 750,-46.9167 750,-36.1043"/>
</g>
<!-- n0047 -->
<g id="node31" class="node"><title>n0047</title>
<polygon fill="none" stroke="black" points="879,-108 825,-108 825,-72 879,-72 879,-108"/>
<text text-anchor="middle" x="852" y="-86.3" font-family="Times New Roman,serif" font-size="14.00">=</text>
</g>
<!-- n0046&#45;&#45;n0047 -->
<g id="edge31" class="edge"><title>n0046&#45;&#45;n0047</title>
<path fill="none" stroke="black" d="M897.169,-143.697C887.868,-132.846 875.929,-118.917 866.661,-108.104"/>
</g>
<!-- n0048 -->
<g id="node32" class="node"><title>n0048</title>
<polygon fill="none" stroke="black" points="991,-108 897,-108 897,-72 991,-72 991,-108"/>
<text text-anchor="middle" x="944" y="-86.3" font-family="Times New Roman,serif" font-size="14.00">EXPRESION</text>
</g>
<!-- n0046&#45;&#45;n0048 -->
<g id="edge32" class="edge"><title>n0046&#45;&#45;n0048</title>
<path fill="none" stroke="black" d="M919.91,-143.697C924.87,-132.846 931.238,-118.917 936.181,-108.104"/>
</g>
<!-- n0049 -->
<g id="node33" class="node"><title>n0049</title>
<polygon fill="none" stroke="black" points="971,-36 917,-36 917,-0 971,-0 971,-36"/>
<text text-anchor="middle" x="944" y="-14.3" font-family="Times New Roman,serif" font-size="14.00">2</text>
</g>
<!-- n0048&#45;&#45;n0049 -->
<g id="edge33" class="edge"><title>n0048&#45;&#45;n0049</title>
<path fill="none" stroke="black" d="M944,-71.6966C944,-60.8463 944,-46.9167 944,-36.1043"/>
</g>
</g>
</svg>
